<svg xmlns="http://www.w3.org/2000/svg" width="24" height="24" viewBox="0 0 24 24">
    <path fill="#222" fill-opacity=".3" d="M6 6c.552 0 1 .448 1 1v7c0 .276-.224.5-.5.5-.285 0-.525.213-.558.497l-.838 7.12c-.06.503-.486.883-.993.883h-.358c-.514 0-.944-.39-.995-.9l-.708-7.102c-.029-.283-.266-.498-.55-.498-.276 0-.5-.224-.5-.5V7c0-.552.448-1 1-1h4zm7 0c.552 0 1 .448 1 1v7c0 .276-.224.5-.5.5-.285 0-.525.213-.558.497l-.838 7.12c-.06.503-.486.883-.993.883h-.358c-.514 0-.944-.39-.995-.9l-.708-7.102c-.029-.283-.266-.498-.55-.498-.276 0-.5-.224-.5-.5V7c0-.552.448-1 1-1h4zm5 5c.552 0 1 .448 1 1v4.667c0 .184-.15.333-.333.333-.19 0-.35.143-.37.331l-.551 4.956c-.045.406-.388.713-.797.713-.406 0-.746-.31-.784-.714l-.467-4.954c-.018-.188-.176-.332-.365-.332-.184 0-.333-.15-.333-.333V12c0-.552.448-1 1-1h2zm5 0c.552 0 1 .448 1 1v4.667c0 .184-.15.333-.333.333-.19 0-.35.143-.37.331l-.551 4.956c-.045.406-.388.713-.797.713-.406 0-.746-.31-.784-.714l-.467-4.954c-.018-.188-.176-.332-.365-.332-.184 0-.333-.15-.333-.333V12c0-.552.448-1 1-1h2zm-6-4c.828 0 1.5.672 1.5 1.5S17.828 10 17 10s-1.5-.672-1.5-1.5S16.172 7 17 7zm5 0c.828 0 1.5.672 1.5 1.5S22.828 10 22 10s-1.5-.672-1.5-1.5S21.172 7 22 7zM4 1c1.105 0 2 .895 2 2s-.895 2-2 2-2-.895-2-2 .895-2 2-2zm7 0c1.105 0 2 .895 2 2s-.895 2-2 2-2-.895-2-2 .895-2 2-2z"/>
</svg>
