<svg xmlns="http://www.w3.org/2000/svg" width="30" height="30" viewBox="0 0 30 30">
    <path fill="#EAE9EA" fill-rule="nonzero" d="M28.725 0c.704 0 1.274.601 1.275 1.343v16.285c-.003.739-.573 1.336-1.275 1.336H9.178c.199.22.41.451.645.697 2.163 2.278 3.235 2.893 4.095 3.387l.262.151c.208.121.469.063.612-.136l1.375-1.86c.479-.643 1.347-.792 1.994-.34l4.72 3.312c.66.462.86 1.388.45 2.103l-1.183 2.078a2.923 2.923 0 0 1-1.714 1.39 6.659 6.659 0 0 1-1.856.254c-2.706 0-6.632-1.492-11.899-7.03C.057 15.998-.476 11.25.243 8.492a3.029 3.029 0 0 1 1.321-1.804L3.535 5.44c.68-.432 1.562-.223 2.001.474l.958 1.513V1.343C6.495.6 7.066 0 7.77 0h20.955zM13.44 23.972c-.917-.526-2.058-1.181-4.324-3.566s-2.888-3.587-3.388-4.552l-.14-.268c-.357-.672-.19-1.518.39-1.987l1.767-1.447a.53.53 0 0 0 .105-.684l-3.148-4.97a.47.47 0 0 0-.65-.154L2.08 7.591a1.99 1.99 0 0 0-.87 1.18c-.649 2.486-.1 6.841 6.179 13.452 6.28 6.611 10.417 7.19 12.781 6.506.472-.142.874-.47 1.12-.916l1.185-2.078a.525.525 0 0 0-.147-.684l-4.72-3.313a.47.47 0 0 0-.65.112l-1.375 1.86c-.445.61-1.25.785-1.888.41l-.254-.148zM29 17.628V1.343a.294.294 0 0 0-.08-.206.265.265 0 0 0-.195-.084H7.769a.265.265 0 0 0-.195.084.294.294 0 0 0-.08.206v7.664l1.189 1.877c.428.682.287 1.596-.324 2.1l-1.767 1.447a.52.52 0 0 0-.13.644l.145.276c.459.92 1.02 1.779 1.669 2.56h20.449a.28.28 0 0 0 .275-.283zm-1.998-15.19a.484.484 0 0 1 .7.1.547.547 0 0 1-.096.739l-8.359 6.672a1.616 1.616 0 0 1-2 0L8.89 3.277a.545.545 0 0 1-.096-.738.484.484 0 0 1 .701-.101L17.85 9.11c.237.18.557.18.794 0l8.358-6.673zM13.98 9.994a.482.482 0 0 1 .687-.007c.194.19.214.507.045.722l-5.124 5.778a.483.483 0 0 1-.707.026.546.546 0 0 1-.024-.744l5.123-5.775zm8.57 0l5.121 5.775a.546.546 0 0 1-.025.744.483.483 0 0 1-.707-.026l-5.121-5.775a.546.546 0 0 1 .024-.744.483.483 0 0 1 .707.026z"/>
</svg>
