<svg xmlns="http://www.w3.org/2000/svg" width="30" height="30" viewBox="0 0 30 30">
    <path fill="#EAE9EA" fill-rule="nonzero" d="M25.609 4.388c-5.85-5.85-15.367-5.85-21.216 0a14.946 14.946 0 0 0-4.06 7.459 15.04 15.04 0 0 0 .557 8.246.61.61 0 1 0 1.149-.414 13.819 13.819 0 0 1-.512-7.577 13.727 13.727 0 0 1 3.73-6.85c5.372-5.375 14.115-5.375 19.488 0a13.704 13.704 0 0 1 4.033 9.581 13.713 13.713 0 0 1-3.876 9.75c-.052.056-.103.11-.157.164-5.373 5.375-14.116 5.375-19.489 0a4.509 4.509 0 0 1-.084-.086 6.603 6.603 0 0 1 .004-.535l.007-.122c.004-.08.008-.162.014-.243.003-.048.008-.095.013-.143.006-.073.012-.146.02-.218l.02-.153c.008-.069.016-.138.027-.206.007-.052.016-.104.025-.155.01-.067.021-.134.034-.2l.031-.157.04-.194.038-.157c.015-.064.03-.127.047-.19.013-.053.028-.105.043-.157.017-.062.034-.124.053-.186l.049-.155c.02-.061.039-.123.06-.183a10.035 10.035 0 0 1 1.489-2.788l.097-.126.122-.15.101-.122.129-.146.105-.118.134-.143.108-.113.141-.14.112-.107c.048-.046.098-.091.148-.136.038-.035.075-.07.113-.103.051-.045.104-.09.156-.133l.115-.097c.054-.044.11-.087.165-.13l.115-.09c.058-.045.117-.087.176-.13.038-.027.074-.055.112-.081.066-.046.132-.09.2-.135l.097-.066c.087-.056.176-.111.265-.165l.04-.026c.104-.061.208-.121.314-.18.036-.02.073-.038.11-.057.07-.038.14-.076.21-.112l.14-.066c.058-.029.116-.057.175-.084A5.968 5.968 0 0 0 15 17.219a5.968 5.968 0 0 0 4.115-1.656 9.945 9.945 0 0 1 4.888 4.977.61.61 0 1 0 1.118-.492A11.01 11.01 0 0 0 19.93 14.6a5.94 5.94 0 0 0 1.035-3.348 5.972 5.972 0 0 0-5.964-5.966.61.61 0 0 0 0 1.221 4.75 4.75 0 0 1 4.743 4.745c0 1.17-.435 2.296-1.224 3.171A4.749 4.749 0 0 1 15 15.998a4.749 4.749 0 0 1-3.519-1.573 4.733 4.733 0 0 1 .184-6.544.61.61 0 0 0-.859-.868 5.924 5.924 0 0 0-1.77 4.24c0 1.2.363 2.362 1.033 3.347l-.018.009-.141.073c-.072.038-.145.075-.216.114-.05.027-.1.056-.15.085-.067.037-.133.075-.2.114l-.15.093c-.064.039-.127.077-.19.117l-.15.1c-.06.04-.12.08-.18.122l-.149.106a11.271 11.271 0 0 0-.787.623 10.342 10.342 0 0 0-.576.538l-.127.129c-.05.051-.098.103-.146.155-.04.044-.081.087-.12.132-.049.053-.096.108-.143.163l-.114.132c-.048.057-.094.116-.14.174l-.105.13c-.049.063-.096.127-.144.191l-.09.121c-.06.084-.119.168-.176.253l-.047.067c-.072.108-.142.216-.21.326l-.068.115c-.044.073-.088.146-.13.22l-.078.14c-.037.068-.075.135-.11.203-.027.05-.052.101-.078.152l-.098.197-.074.16-.089.196-.07.165-.08.198c-.023.056-.044.112-.065.168a11.496 11.496 0 0 0-.252.748 10.886 10.886 0 0 0-.243.982 11.194 11.194 0 0 0-.072.396l-.027.174c-.011.076-.02.152-.03.229-.007.056-.015.113-.021.17-.01.08-.016.16-.023.24l-.014.162-.015.27c-.002.045-.006.09-.007.135-.005.135-.008.272-.008.408 0 .148.005.287.011.441.002.036.007.07.014.104l.001.008a.602.602 0 0 0 .031.096l.004.01c.013.03.028.06.046.087l.007.01a.622.622 0 0 0 .06.077l.005.005.08.086c.061.065.122.13.186.194A14.952 14.952 0 0 0 15 30c3.842 0 7.684-1.463 10.608-4.388.064-.064.125-.129.185-.194l.081-.086a14.929 14.929 0 0 0 4.125-10.513 14.918 14.918 0 0 0-4.39-10.43z"/>
</svg>
