<svg xmlns="http://www.w3.org/2000/svg" width="30" height="30" viewBox="0 0 30 30">
    <g fill="none" fill-rule="nonzero">
        <path fill="#EAE9EA" d="M24.679 14.015c-.342-3.494-3.007-6.028-6.342-6.028-2.221 0-4.255 1.109-5.4 2.887-1.134-1.801-3.085-2.888-5.271-2.888-3.334 0-6 2.535-6.341 6.029-.027.154-.138.966.2 2.29.485 1.91 1.607 3.649 3.243 5.025l8.164 6.874 8.303-6.874c1.636-1.376 2.758-3.114 3.244-5.024.337-1.324.226-2.137.2-2.291zm1.044 2.563c-.546 2.147-1.804 4.095-3.637 5.637L12.924 29.8l-.851-.717-8.163-6.875C2.084 20.673.826 18.725.28 16.578c-.3-1.183-.328-2.12-.228-2.67C.451 9.83 3.637 6.8 7.666 6.8c2.03 0 3.906.776 5.285 2.125C14.359 7.584 16.287 6.8 18.337 6.8c4.017 0 7.196 3.011 7.61 7.07.102.636.07 1.552-.224 2.708z"/>
        <circle cx="21.707" cy="7.5" r="7.5" fill="#716C70"/>
        <path fill="#FFF" d="M24.24 7.403a4.96 4.96 0 0 0-.171-1.358 3.107 3.107 0 0 0-.484-1.02 2.14 2.14 0 0 0-.755-.64 2.182 2.182 0 0 0-.998-.225c-.37 0-.702.075-.998.224a2.18 2.18 0 0 0-.76.642c-.21.278-.372.618-.483 1.02a5.083 5.083 0 0 0-.167 1.357c0 .498.057.948.171 1.35.114.4.276.74.484 1.015.208.275.461.487.76.637.299.15.633.224 1.002.224s.701-.075.997-.224c.296-.15.548-.362.756-.637.208-.276.368-.614.48-1.016.11-.4.166-.85.166-1.349zm1.424 0c0 .621-.086 1.2-.26 1.736-.172.536-.423 1-.75 1.393-.329.393-.729.7-1.2.923-.472.223-1.01.334-1.613.334-.621 0-1.17-.111-1.648-.334a3.414 3.414 0 0 1-1.204-.923 4.039 4.039 0 0 1-.739-1.393A5.809 5.809 0 0 1 18 7.403c0-.627.086-1.208.26-1.744a4.163 4.163 0 0 1 .75-1.398c.329-.395.73-.704 1.205-.927.474-.223 1.014-.334 1.617-.334.615 0 1.162.111 1.64.334.477.223.878.532 1.203.927.325.396.572.862.739 1.398a5.84 5.84 0 0 1 .25 1.744z"/>
    </g>
</svg>
