<svg xmlns="http://www.w3.org/2000/svg" xmlns:xlink="http://www.w3.org/1999/xlink" width="45" height="10" viewBox="0 0 45 10">
    <defs>
        <path id="a" d="M17.855 9.193V.31H0v8.883z"/>
        <path id="c" d="M17.855 9.193V.31H0v8.883z"/>
    </defs>
    <g fill="none" fill-rule="evenodd" opacity=".94">
        <path fill="#FFF" fill-rule="nonzero" d="M4.259.804c2.232 0 4.043 1.798 4.043 4.017 0 2.22-1.81 4.018-4.043 4.018S.216 7.04.216 4.821c0-2.218 1.81-4.017 4.043-4.017M13.369.804c2.233 0 4.043 1.798 4.043 4.017 0 2.22-1.81 4.018-4.043 4.018S9.326 7.04 9.326 4.821c0-2.218 1.81-4.017 4.043-4.017M22.048.804c2.232 0 4.043 1.798 4.043 4.017 0 2.22-1.81 4.018-4.043 4.018s-4.043-1.799-4.043-4.018c0-2.218 1.81-4.017 4.043-4.017M30.942.804c2.233 0 4.043 1.798 4.043 4.017 0 2.22-1.81 4.018-4.043 4.018S26.9 7.04 26.9 4.821c0-2.218 1.81-4.017 4.043-4.017M40.052.804c2.233 0 4.043 1.798 4.043 4.017 0 2.22-1.81 4.018-4.043 4.018-2.232 0-4.043-1.799-4.043-4.018 0-2.218 1.81-4.017 4.043-4.017"/>
        <g transform="translate(26.63)">
            <mask id="b" fill="#fff">
                <use xlink:href="#a"/>
            </mask>
            <path fill="#00A680" fill-rule="nonzero" d="M3.019 7.982C2.156 7.607 1.509 6.857 1.186 6a3.68 3.68 0 0 1 .108-2.732c.377-.857 1.132-1.5 1.994-1.822C5.121.75 7.17 1.714 7.87 3.536c.701 1.821-.27 3.857-2.102 4.553a3.746 3.746 0 0 1-2.75-.107zM2.965.59C1.833 1.018.97 1.821.43 2.893A4.543 4.543 0 0 0 0 4.768c0 .536.108 1.018.27 1.553a4.356 4.356 0 0 0 2.317 2.465 4.66 4.66 0 0 0 3.397.16c2.318-.857 3.504-3.428 2.641-5.678C7.87.91 5.283-.268 2.965.589z" mask="url(#b)"/>
        </g>
        <g transform="translate(26.63)">
            <mask id="d" fill="#fff">
                <use xlink:href="#c"/>
            </mask>
            <path fill="#00A680" fill-rule="nonzero" d="M11.967 7.982c-.862-.375-1.51-1.125-1.833-1.982a3.68 3.68 0 0 1 .108-2.732c.378-.857 1.132-1.5 1.995-1.822 1.833-.696 3.881.268 4.582 2.09.7 1.821-.27 3.857-2.103 4.553a3.746 3.746 0 0 1-2.749-.107zM11.913.59c-1.132.429-1.994 1.232-2.533 2.304a4.543 4.543 0 0 0-.432 1.875c0 .536.108 1.018.27 1.553a4.356 4.356 0 0 0 2.318 2.465 4.66 4.66 0 0 0 3.396.16c2.318-.857 3.504-3.428 2.641-5.678C16.765.91 14.231-.268 11.913.589z" mask="url(#d)"/>
        </g>
        <path fill="#00A680" fill-rule="nonzero" d="M11.86 7.982c-.863-.375-1.51-1.125-1.833-1.982a3.68 3.68 0 0 1 .107-2.732c.378-.857 1.132-1.5 1.995-1.822 1.833-.696 3.881.268 4.582 2.09.7 1.821-.27 3.857-2.102 4.553a3.746 3.746 0 0 1-2.75-.107zM11.804.59c-1.132.429-1.994 1.232-2.533 2.304a4.543 4.543 0 0 0-.431 1.875c0 .536.107 1.018.27 1.553a4.356 4.356 0 0 0 2.317 2.465 4.66 4.66 0 0 0 3.396.16c2.318-.857 3.504-3.428 2.642-5.678C16.657.91 14.07-.268 11.806.589z"/>
        <path fill="#00A680" fill-rule="nonzero" d="M.863 4.714C.863 2.786 2.48 1.18 4.42 1.18s3.558 1.607 3.558 3.535c0 1.929-1.617 3.536-3.558 3.536C2.48 8.25.862 6.696.862 4.714m-.862 0C0 7.18 1.995 9.161 4.474 9.161c2.48 0 4.474-1.982 4.474-4.447C8.948 2.25 6.954.268 4.474.268 1.994.32 0 2.304 0 4.714M18.705 4.714c0-1.928 1.618-3.535 3.558-3.535 1.94 0 3.558 1.607 3.558 3.535 0 1.929-1.617 3.536-3.558 3.536-1.94 0-3.558-1.554-3.558-3.536m-.916 0c0 2.465 1.995 4.447 4.474 4.447 2.48 0 4.474-1.982 4.474-4.447 0-2.464-1.994-4.446-4.474-4.446-2.48.053-4.474 2.036-4.474 4.446"/>
        <path fill="#00A680" fill-rule="nonzero" d="M2.156 4.714c0 1.232.97 2.197 2.21 2.197s2.21-.965 2.21-2.197c0-1.232-.97-2.196-2.21-2.196-1.186 0-2.21.964-2.21 2.196M11.105 4.714c0 1.232.97 2.197 2.21 2.197s2.21-.965 2.21-2.197c0-1.232-.97-2.196-2.21-2.196-1.186 0-2.21.964-2.21 2.196M20 4.714c0 1.232.97 2.197 2.21 2.197s2.21-.965 2.21-2.197c0-1.232-.97-2.196-2.21-2.196S20 3.482 20 4.714M28.948 4.768c0 1.232.97 2.196 2.21 2.196s2.21-.964 2.21-2.196c0-1.232-.97-2.197-2.21-2.197s-2.21.965-2.21 2.197M37.842 4.714c0 1.232.97 2.197 2.21 2.197V2.518c-1.186 0-2.21.964-2.21 2.196"/>
    </g>
</svg>
