<svg xmlns="http://www.w3.org/2000/svg" width="11" height="11" viewBox="0 0 11 11">
    <g fill="none" fill-rule="evenodd">
        <circle cx="5.5" cy="5.5" r="5.5" fill="#009C55"/>
        <path fill="#FFF" fill-rule="nonzero" d="M4.242 8.607c-.063.033-.139.037-.215-.038l-1.73-1.75c-.154-.155-.118-.359.06-.486.226-.162.53-.426.785-.812.12-.182.291-.194.41-.012l.427.656c.118.183.395.692.468.666a.272.272 0 0 0 .109-.086l3.503-3.879c.136-.17.329-.151.43.04l.81 1.15a.494.494 0 0 1-.125.594L4.715 8.198c-.17.136-.357.35-.473.41z"/>
    </g>
</svg>
