<svg xmlns="http://www.w3.org/2000/svg" width="25" height="25" viewBox="0 0 25 25">
    <path fill="none" fill-rule="evenodd" stroke="#716C70" stroke-width="1.3" d="M24.346 19.837c-.038-.158-.146-.295-.35-.422l-4.955-2.928h-.03l-.154-.093c-.063-.038-.188-.066-.38-.066a.954.954 0 0 0-.647.229l-1.513 1.54a1.05 1.05 0 0 1-.426.25 1.154 1.154 0 0 1-.378.073l-.127-.013-.33-.066c-.293-.058-.658-.205-1.122-.442-.45-.23-.992-.578-1.635-1.047-.65-.474-1.383-1.129-2.19-1.954-.835-.819-1.485-1.547-1.95-2.189-.46-.635-.805-1.18-1.03-1.631-.274-.529-.454-1.01-.538-1.45l-.011-.12c0-.133.026-.264.073-.405a1.05 1.05 0 0 1 .25-.426L8.198 7.38c.139-.139.229-.307.274-.521a.655.655 0 0 0-.072-.49l-2.805-5.33a1.191 1.191 0 0 0-.292-.32.339.339 0 0 0-.218-.068c-.14 0-.26.052-.387.18L1.154 4.376c-.11.1-.211.239-.3.422a2.435 2.435 0 0 0-.173.472c0 .054-.008.222-.028.566-.014.264.018.658.1 1.173.082.52.241 1.15.479 1.889.235.73.59 1.553 1.069 2.467.478.913 1.114 1.915 1.907 3.003.79 1.082 1.79 2.221 3.008 3.422 1.522 1.54 2.952 2.748 4.286 3.62 1.346.88 2.542 1.537 3.586 1.97 1.04.432 1.91.7 2.601.805.72.11 1.235.165 1.53.165.12 0 .215-.004.279-.01.12-.012.174-.017.132-.01.178-.026.365-.085.563-.18.183-.089.322-.189.447-.326l3.518-3.494c.153-.153.208-.3.188-.493zM7.886 9.515l-.002.005zm7.587 7.6l.006-.001h-.003z"/>
</svg>
