<svg xmlns="http://www.w3.org/2000/svg" width="25" height="25" viewBox="0 0 25 25">
    <g fill="none" fill-rule="nonzero">
        <path fill="#D8D8D8" fill-opacity="0" d="M0 0h25v25H0z"/>
        <g stroke="#716C70" stroke-width="1.3" transform="translate(2 4)">
            <rect width="19.7" height="14.7" x=".65" y=".65" rx="1"/>
            <path d="M8.926 8.085l3.249.09 7.304 6.565a.35.35 0 0 1-.234.61H1.755a.35.35 0 0 1-.234-.61l7.405-6.655z"/>
            <path d="M1.768.65a.35.35 0 0 0-.23.613L10.493 9.1a.35.35 0 0 0 .467-.006l8.55-7.835a.35.35 0 0 0-.236-.608H1.768z"/>
        </g>
    </g>
</svg>
