<svg xmlns="http://www.w3.org/2000/svg" width="22" height="22" viewBox="0 0 22 22">
    <path fill="none" fill-rule="nonzero" stroke="#FFF" stroke-width="1.5" d="M12.754 15.39l.002.002.217.119a.482.482 0 0 0 .62-.13l1.15-1.48a1.157 1.157 0 0 1 1.549-.25l3.944 2.63c.512.342.666 1.025.35 1.553l-.985 1.641a2.342 2.342 0 0 1-1.385 1.073c-2.955.812-6.749-.697-11.409-5.357C2.15 10.532.64 6.74 1.454 3.778a2.332 2.332 0 0 1 1.062-1.374l1.65-.99a1.154 1.154 0 0 1 1.552.35L8.35 5.71a1.156 1.156 0 0 1-.253 1.55L6.616 8.41a.482.482 0 0 0-.125.62l.119.215c.645 1.184 1.2 1.94 2.702 3.442 1.503 1.503 2.26 2.058 3.442 2.703z"/>
</svg>
