<svg xmlns="http://www.w3.org/2000/svg" width="25" height="25" viewBox="0 0 25 25">
    <path fill="none" fill-rule="nonzero" stroke="#716C70" stroke-width="1.3" d="M11.5 1.65c-4.325 0-7.85 3.605-7.85 8.042 0 2.45 1.395 5.674 3.738 9.26a52.203 52.203 0 0 0 4.031 5.36.105.105 0 0 0 .162 0 52.203 52.203 0 0 0 4.031-5.359c2.343-3.587 3.738-6.812 3.738-9.261 0-4.437-3.525-8.042-7.85-8.042zm0 11.572c-1.915 0-3.466-1.586-3.466-3.53 0-1.944 1.55-3.53 3.466-3.53 1.915 0 3.466 1.586 3.466 3.53 0 1.944-1.55 3.53-3.466 3.53z"/>
</svg>
