<svg xmlns="http://www.w3.org/2000/svg" width="26" height="26" viewBox="0 0 26 26">
    <path fill="#FFF" fill-rule="evenodd" d="M19.284 16.142l6.5 6.5a.58.58 0 0 1 0 .78l-2.362 2.361a.578.578 0 0 1-.78 0l-6.5-6.5a10.106 10.106 0 0 1-5.655 1.69c-2.89 0-5.36-1.025-7.41-3.076C1.026 15.846 0 13.376 0 10.487c0-2.89 1.026-5.36 3.077-7.41C5.127 1.026 7.597 0 10.487 0c2.889 0 5.359 1.026 7.41 3.077 2.05 2.05 3.077 4.52 3.077 7.41 0 2.05-.563 3.936-1.69 5.655 0 0 1.127-1.72 0 0zM5.417 5.438C4.016 6.84 3.315 8.522 3.315 10.487c0 1.964.7 3.647 2.102 5.048 1.4 1.401 3.09 2.102 5.07 2.102 1.979 0 3.665-.697 5.059-2.091 1.394-1.394 2.09-3.08 2.09-5.06 0-1.978-.696-3.665-2.09-5.059-1.394-1.393-3.08-2.09-5.06-2.09-1.978 0-3.668.7-5.07 2.101z"/>
</svg>
