<svg xmlns="http://www.w3.org/2000/svg" width="20" height="20" viewBox="0 0 20 20">
    <g fill="none" fill-rule="evenodd" opacity=".5">
        <circle cx="10" cy="10" r="10" fill="#473E47"/>
        <path fill="#FFF" fill-rule="nonzero" d="M7.617 14.411c-.098.049-.215.055-.333-.058l-2.69-2.646c-.237-.234-.182-.542.094-.734a4.807 4.807 0 0 0 1.22-1.229c.187-.274.453-.292.637-.017l.663.992c.185.276.615 1.045.728 1.006a.422.422 0 0 0 .17-.13L13.55 5.73c.211-.256.51-.229.667.062l1.26 1.738c.158.29.07.692-.195.897l-6.928 5.365c-.265.205-.556.529-.737.618z"/>
    </g>
</svg>
