<svg xmlns="http://www.w3.org/2000/svg" width="25" height="25" viewBox="0 0 25 25">
    <path fill="none" fill-rule="nonzero" stroke="#716C70" stroke-width="1.4" d="M14.314 19.592c-1.347 2.268-1.015 4.151.231 4.622 1.231.466 2.594-.794 2.966-3.674a102.91 102.91 0 0 0-.813-.239l-1.213-.35a53.04 53.04 0 0 1-1.171-.359zm.429-2.238a.04.04 0 0 0-.001-.001zm-.034-.104c1.044.237 1.956.46 3.703.9.97-1.158 2.12-5.514 1.923-6.926l-.006-.073c-.056-1.561-.239-2.658-.655-3.453-.487-.93-1.257-1.324-2.495-1.146-1.347.35-2.393 1.962-2.91 4.785-.273 1.488-.152 3.766.213 5.198.067.2.172.542.227.715zm-5.15-6.512c.375-1.48.493-3.742.222-5.221-.518-2.824-1.563-4.435-2.835-4.77-1.313-.193-2.083.2-2.57 1.13-.417.795-.6 1.892-.662 3.526-.197 1.412.953 5.768 1.924 6.926 1.731-.436 2.656-.662 3.703-.9.052-.166.151-.488.218-.69zm-.252.796v.001a.18.18 0 0 0 .003-.01zM6.538 14.72c.372 2.88 1.735 4.14 2.966 3.674 1.246-.471 1.578-2.354.231-4.622a36.091 36.091 0 0 1-1.171.358l-1.213.35c-.295.086-.559.164-.813.24z"/>
</svg>
