<svg xmlns="http://www.w3.org/2000/svg" width="25" height="24" viewBox="0 0 25 24">
    <path fill="#222" fill-opacity=".3" d="M5 7c.552 0 1 .448 1 1v6.042c0 .253-.205.458-.458.458-.262 0-.483.195-.514.455l-.754 6.166c-.061.502-.487.879-.993.879h-.185c-.513 0-.942-.387-.995-.897l-.637-6.147c-.027-.26-.245-.456-.506-.456-.253 0-.458-.205-.458-.458V8c0-.552.448-1 1-1H5zm6 0c.552 0 1 .448 1 1v6.042c0 .253-.205.458-.458.458-.262 0-.483.195-.514.455l-.754 6.166c-.061.502-.487.879-.993.879h-.185c-.513 0-.942-.387-.995-.897l-.637-6.147c-.027-.26-.245-.456-.506-.456-.253 0-.458-.205-.458-.458V8c0-.552.448-1 1-1H11zm6 0c.552 0 1 .448 1 1v6.042c0 .253-.205.458-.458.458-.262 0-.483.195-.514.455l-.754 6.166c-.061.502-.487.879-.993.879h-.185c-.513 0-.942-.387-.995-.897l-.637-6.147c-.027-.26-.245-.456-.506-.456-.253 0-.458-.205-.458-.458V8c0-.552.448-1 1-1H17zm6 0c.552 0 1 .448 1 1v6.042c0 .253-.205.458-.458.458-.262 0-.483.195-.514.455l-.754 6.166c-.061.502-.487.879-.993.879h-.185c-.513 0-.942-.387-.995-.897l-.637-6.147c-.027-.26-.245-.456-.506-.456-.253 0-.458-.205-.458-.458V8c0-.552.448-1 1-1H23zM3.25 2.5C4.216 2.5 5 3.284 5 4.25S4.216 6 3.25 6 1.5 5.216 1.5 4.25 2.284 2.5 3.25 2.5zm6 0c.966 0 1.75.784 1.75 1.75S10.216 6 9.25 6 7.5 5.216 7.5 4.25 8.284 2.5 9.25 2.5zm12 0c.966 0 1.75.784 1.75 1.75S22.216 6 21.25 6s-1.75-.784-1.75-1.75.784-1.75 1.75-1.75zm-6 0c.966 0 1.75.784 1.75 1.75S16.216 6 15.25 6s-1.75-.784-1.75-1.75.784-1.75 1.75-1.75z"/>
</svg>
