<?xml version="1.0" encoding="UTF-8"?> <!-- Generator: Adobe Illustrator 24.3.0, SVG Export Plug-In . SVG Version: 6.00 Build 0) --> <svg xmlns="http://www.w3.org/2000/svg" xmlns:xlink="http://www.w3.org/1999/xlink" version="1.1" id="Layer_1" x="0px" y="0px" viewBox="0 0 283.5 170.1" style="enable-background:new 0 0 283.5 170.1;" xml:space="preserve"> <style type="text/css"> .st0{clip-path:url(#SVGID_2_);fill:url(#SVGID_3_);} </style> <g> <defs> <path id="SVGID_1_" d="M191.2,135c0.3,0,0.4,0,0.4,0H191.2z M140.8,34.2c0,0-36.2,87-38.8,92.6c-2.6,5.6-10.3,8.2-10.3,8.2h14.4 c0,0,6.3-10.3,9.2-12.2c3-1.9,2.8-11.8,4.5-18.6c1.7-6.8,8.3-16.3,8.3-16.3s5.8-4.2,7-7.6c1.2-3.4,0-9.3,0-9.3s4.4-6.3,6.5-6.1 c2.1,0.2,11.8,16.2,12.6,19.3c0.9,3.1-0.7,8.7,0.2,11.5c0.9,2.8,9.4,12.8,11.5,16.5c2,3.7,5.6,22.8,5.6,22.8h19.7 c-1.2-0.1-4.8-0.9-8.4-7.2C178.4,120,140.8,34.2,140.8,34.2z"></path> </defs> <clipPath id="SVGID_2_"> <use xlink:href="#SVGID_1_" style="overflow:visible;"></use> </clipPath> <linearGradient id="SVGID_3_" gradientUnits="userSpaceOnUse" x1="-153.5631" y1="509.6891" x2="-152.5631" y2="509.6891" gradientTransform="matrix(99.9673 0 0 -99.9673 15442.957 51036.8555)"> <stop offset="0" style="stop-color:#C0A06D"></stop> <stop offset="3.846150e-04" style="stop-color:#C0A06D"></stop> <stop offset="0.3305" style="stop-color:#BBB099"></stop> <stop offset="0.7825" style="stop-color:#7D663E"></stop> <stop offset="0.9881" style="stop-color:#796B40"></stop> <stop offset="1" style="stop-color:#796B40"></stop> </linearGradient> <rect x="91.7" y="34.2" class="st0" width="100" height="100.9"></rect> </g> </svg> 