<?xml version="1.0" encoding="utf-8"?>
<!-- Generator: Adobe Illustrator 22.0.1, SVG Export Plug-In . SVG Version: 6.00 Build 0)  -->
<svg version="1.1" id="Layer_1" xmlns="http://www.w3.org/2000/svg" xmlns:xlink="http://www.w3.org/1999/xlink" x="0px" y="0px"
	 viewBox="0 0 408 205.5" style="enable-background:new 0 0 408 205.5;" xml:space="preserve">
<style type="text/css">
	.st0{clip-path:url(#SVGID_2_);fill:url(#SVGID_3_);}
	.st1{clip-path:url(#SVGID_5_);fill:url(#SVGID_6_);}
	.st2{clip-path:url(#SVGID_8_);fill:url(#SVGID_9_);}
	.st3{clip-path:url(#SVGID_11_);fill:url(#SVGID_12_);}
</style>
<g>
	<defs>
		<path id="SVGID_1_" d="M378.7,44.9c-3.4,0.3-7,0.4-10.9,0.5h-0.9c-5.6,0.2-11.7,0.3-18.3,0.3l-24.4,0.1v0.1
			c2.3,0.4,4.1,1.5,5.4,3.5c1.3,2,1.9,4.8,1.9,8.3v0.1h0.1l-0.1,60.8c0,3.6-0.6,6.3-1.9,8.3c-1.3,2-3.1,3.2-5.4,3.5v0.1
			c12.9-0.1,23.2-0.1,30.8-0.1c10.5,0,19.1,0.2,25.9,0.5c1.2,0,2.2,0,2.8-0.1l1.1,0.1l0.1-0.8l2.7-17.2l-0.1-0.1
			c-0.7,2.3-2.3,4.4-4.9,6.2c-2.5,1.8-6.5,3.5-11.8,5c-2.5,0.6-5.3,0.9-8.5,0.9c-6.9,0-11-0.1-12.1-0.3c-4.7-1-7.1-3.5-7.1-7.5V89
			c0-0.6,0.4-0.9,1.2-0.9c10.9-0.1,19.2,0,24.8,0.4c3.6,0,6.3,0.6,8.3,1.9c2,1.3,3.2,3.1,3.5,5.4h0.1c-0.2-10.8-0.2-18-0.1-21.5
			h-0.1c-0.4,2.3-1.3,4.3-2.9,5.9c-1.6,1.6-4.2,2.5-7.7,2.5c-14.5-0.1-22.9-0.1-25.2-0.1c-1.2,0-1.9-0.5-1.9-1.6V53.8
			c0-1.1,0.1-1.7,0.3-2c0.4-0.4,1.4-0.7,2.8-0.7c6.6,0,11.7,0,15.5,0.1c4.2,0.2,7.6,0.5,10.3,0.9c2.7,0.4,4.8,0.9,6.4,1.6
			c1.6,0.7,2.8,1.4,3.5,2.3c0.7,0.9,1.2,1.9,1.3,3.1h0.1l-0.1-11.6v-2.1c0-0.4-0.8-0.6-2.4-0.6C380,44.8,379.4,44.8,378.7,44.9
			 M220.2,44.7v0.1c2.4,0.4,4.6,1.5,6.7,3.5c2,2,3.7,4.7,5.1,8.3c11.6,25.7,23.4,52.7,35.3,81.1c4.7-12.5,10.3-26.8,16.8-42.7
			c2.5-5.8,6.1-13.8,10.9-24.2c4.8-10.4,7.8-16.3,9.1-17.9c1.3-1.7,2.6-3.4,3.7-5c1.2-1.6,2.8-2.6,4.8-3l-0.1-0.1h-16.1l-25.5,65.9
			c-0.4,0.7-0.7,1.1-1.1,1.1c-0.4,0-0.8-0.4-1.2-1.1c-14.7-34-23.9-56-27.7-66L220.2,44.7z M34.8,55.9c-9.3,8.5-14.1,19.2-14.3,31.9
			V88c0.2,12.8,4.9,23.4,14.3,31.9c9.2,8.5,20.2,12.7,33.2,12.7c9.2,0,17-1.1,23.2-3.3c3.7-1.3,6.3-2.6,7.6-3.9l0.7-0.7
			c0.2-0.4,0.3-0.7,0.4-0.9c0.4-3.3,0.7-6.9,0.7-10.9c0-4-0.2-6.1-0.5-6.4h-0.3c-0.2,1.1-0.6,2.4-1.3,3.9c-0.7,1.5-1.8,3.1-3.3,4.7
			c-1.5,1.6-3.3,3.2-5.5,4.9c-2.2,1.6-4.9,3.2-8.1,4.6c-3.6,1.6-8.2,2.4-13.9,2.4c-9.6,0-17.5-3.2-23.6-9.6
			c-6.6-6.9-9.9-16.5-9.9-28.5V88v-0.1v-0.7c0-12.1,3.3-21.6,9.9-28.5c6.1-6.4,14-9.6,23.6-9.6c5.7,0,10.3,0.8,13.9,2.4
			c3.2,1.4,5.9,3,8.1,4.6c2.2,1.6,4.1,3.3,5.5,4.9c1.5,1.6,2.6,3.2,3.3,4.7c0.7,1.5,1.2,2.8,1.3,3.9h0.3c0.4-0.3,0.5-2.4,0.5-6.4
			c0-4-0.2-7.6-0.7-10.9c-0.1-0.3-0.2-0.6-0.4-0.9l-0.7-0.7c-1.3-1.2-3.9-2.5-7.6-3.9c-6.2-2.2-14-3.3-23.2-3.3
			C55,43.3,43.9,47.5,34.8,55.9"/>
	</defs>
	<clipPath id="SVGID_2_">
		<use xlink:href="#SVGID_1_"  style="overflow:visible;"/>
	</clipPath>
	
		<linearGradient id="SVGID_3_" gradientUnits="userSpaceOnUse" x1="84.8242" y1="145.6499" x2="85.8242" y2="145.6499" gradientTransform="matrix(366.9867 0 0 -366.9867 -31108.8691 53542.0625)">
		<stop  offset="0" style="stop-color:#C0A06D"/>
		<stop  offset="3.846150e-04" style="stop-color:#C0A06D"/>
		<stop  offset="0.3305" style="stop-color:#BBB099"/>
		<stop  offset="0.7825" style="stop-color:#7D663E"/>
		<stop  offset="0.9881" style="stop-color:#796B40"/>
		<stop  offset="1" style="stop-color:#796B40"/>
	</linearGradient>
	<rect x="20.5" y="43.3" class="st0" width="367" height="94.4"/>
</g>
<g>
	<defs>
		<path id="SVGID_4_" d="M234.9,135.8c0.3,0,0.5,0,0.5,0H234.9z M170,6.1c-0.1,0.4-46.5,111.9-49.9,119.1
			c-3.4,7.2-13.2,10.6-13.2,10.6h18.5c0,0,8.1-13.3,11.9-15.7c3.8-2.5,3.6-15.2,5.8-24c2.2-8.8,10.7-21,10.7-21s7.5-5.4,9.1-9.7
			c1.5-4.3,0-12,0-12s5.7-8.1,8.4-7.9c2.6,0.2,15.1,20.9,16.3,24.8c1.1,3.9-0.9,11.2,0.2,14.8c1.1,3.7,12.1,16.4,14.8,21.2
			c2.6,4.8,7.2,29.4,7.2,29.4h25.3c-1.5-0.1-6.2-1.1-10.8-9.3C218.4,116.5,170.1,6.5,170,6.1z"/>
	</defs>
	<clipPath id="SVGID_5_">
		<use xlink:href="#SVGID_4_"  style="overflow:visible;"/>
	</clipPath>
	
		<linearGradient id="SVGID_6_" gradientUnits="userSpaceOnUse" x1="84.4982" y1="146.065" x2="85.4982" y2="146.065" gradientTransform="matrix(128.5615 0 0 -128.5615 -10756.3701 18849.3223)">
		<stop  offset="0" style="stop-color:#C0A06D"/>
		<stop  offset="3.846150e-04" style="stop-color:#C0A06D"/>
		<stop  offset="0.3305" style="stop-color:#BBB099"/>
		<stop  offset="0.7825" style="stop-color:#7D663E"/>
		<stop  offset="0.9881" style="stop-color:#796B40"/>
		<stop  offset="1" style="stop-color:#796B40"/>
	</linearGradient>
	<rect x="106.8" y="6.1" class="st1" width="128.6" height="129.7"/>
</g>
<g>
	<defs>
		<path id="SVGID_7_" d="M155.9,156.8v11.9h-11.4v-11.9h-4v27.6h4v-12h11.4v12h4v-27.6H155.9z M208.9,156.8v3.7h5.3v23.9h4v-23.9
			h5.3v-3.7H208.9z M233.8,156.8v27.6h14.9v-3.7h-10.9v-8.4h10.9v-3.7h-10.9v-8.1h10.9v-3.7H233.8z M261.2,156.8v27.6h13.6v-3.7
			h-9.6v-23.9H261.2z M175.6,170.6c0-4.4,3.2-10.6,10.3-10.6c6.9,0,10.3,5.9,10.3,10.8c0,4.3-3.2,10.5-10.3,10.5
			C178.9,181.3,175.6,175.1,175.6,170.6 M185.9,156.3c-8.4,0-14.4,6.8-14.4,14.3c0,7.6,6.1,14.3,14.4,14.3c8.2,0,14.4-6.7,14.4-14.3
			C200.3,162.8,194.2,156.3,185.9,156.3z M291.5,156.3c-5.2,0-7.7,4.3-7.7,7.5c0,1.9,0.6,4,1.9,5.2c1.3,1.2,2.2,1.7,5.9,3.1
			c1.9,0.7,4.4,1.4,4.4,4.5c0,2.9-1.9,4.7-4.4,4.7c-4.1,0-4.5-4.1-4.5-5h-4c0,6.2,4.7,8.7,8.5,8.7c5.1,0,8.5-3.5,8.5-8.4
			c0-6.6-5-7.7-8.5-9c-1.2-0.4-3.7-1.2-3.7-3.8c0-1.6,1.3-3.8,3.7-3.8c1.6,0,3.9,0.9,3.9,4h4C299.4,159.3,296.1,156.3,291.5,156.3z"
			/>
	</defs>
	<clipPath id="SVGID_8_">
		<use xlink:href="#SVGID_7_"  style="overflow:visible;"/>
	</clipPath>
	
		<linearGradient id="SVGID_9_" gradientUnits="userSpaceOnUse" x1="85.3477" y1="145.3425" x2="86.3477" y2="145.3425" gradientTransform="matrix(159.4874 0 0 -159.4874 -13471.4277 23350.9141)">
		<stop  offset="0" style="stop-color:#C0A06D"/>
		<stop  offset="3.846150e-04" style="stop-color:#C0A06D"/>
		<stop  offset="0.3305" style="stop-color:#BBB099"/>
		<stop  offset="0.7825" style="stop-color:#7D663E"/>
		<stop  offset="0.9881" style="stop-color:#796B40"/>
		<stop  offset="1" style="stop-color:#796B40"/>
	</linearGradient>
	<rect x="140.5" y="156.3" class="st2" width="159.5" height="28.7"/>
</g>
<g>
	<defs>
		<path id="SVGID_10_" d="M378.7,44.5c-3.4,0.3-7,0.4-10.9,0.5h-0.9c-5.6,0.2-11.7,0.3-18.3,0.3l-24.4,0.1v0.1
			c2.3,0.4,4.1,1.5,5.4,3.5c1.3,2,1.9,4.8,1.9,8.3v0.1h0.1l-0.1,60.8c0,3.6-0.6,6.3-1.9,8.3c-1.3,2-3.1,3.2-5.4,3.5v0.1
			c12.9-0.1,23.2-0.1,30.8-0.1c10.5,0,19.1,0.2,25.9,0.5c1.2,0,2.2,0,2.8-0.1l1.1,0.1l0.1-0.8l2.7-17.2l-0.1-0.1
			c-0.7,2.3-2.3,4.4-4.9,6.2c-2.5,1.8-6.5,3.5-11.8,5c-2.5,0.6-5.3,0.9-8.5,0.9c-6.9,0-11-0.1-12.1-0.3c-4.7-1-7.1-3.5-7.1-7.5V88.7
			c0-0.6,0.4-0.9,1.2-0.9c10.9-0.1,19.2,0,24.8,0.4c3.6,0,6.3,0.6,8.3,1.9c2,1.3,3.2,3.1,3.5,5.4h0.1c-0.2-10.8-0.2-18-0.1-21.5
			h-0.1c-0.4,2.3-1.3,4.3-2.9,5.9c-1.6,1.6-4.2,2.5-7.7,2.5c-14.5-0.1-22.9-0.1-25.2-0.1c-1.2,0-1.9-0.5-1.9-1.6V53.5
			c0-1.1,0.1-1.7,0.3-2c0.4-0.4,1.4-0.7,2.8-0.7c6.6,0,11.7,0,15.5,0.1c4.2,0.2,7.6,0.5,10.3,0.9c2.7,0.4,4.8,0.9,6.4,1.6
			c1.6,0.7,2.8,1.4,3.5,2.3c0.7,0.9,1.2,1.9,1.3,3.1h0.1l-0.1-11.6v-2.1c0-0.4-0.8-0.6-2.4-0.6C380,44.5,379.4,44.5,378.7,44.5
			 M220.2,44.4v0.1c2.4,0.4,4.6,1.5,6.7,3.5c2,2,3.7,4.7,5.1,8.3c11.6,25.7,23.4,52.7,35.3,81.1c4.7-12.5,10.3-26.8,16.8-42.7
			c2.5-5.8,6.1-13.9,10.9-24.2c4.8-10.4,7.8-16.3,9.1-17.9c1.3-1.7,2.6-3.4,3.7-5c1.2-1.6,2.8-2.6,4.8-3l-0.1-0.1h-16.1l-25.5,65.9
			c-0.4,0.7-0.7,1.1-1.1,1.1c-0.4,0-0.8-0.4-1.2-1.1c-14.7-34-23.9-56-27.7-66L220.2,44.4z M34.8,55.6c-9.3,8.5-14.1,19.2-14.3,31.9
			v0.1c0.2,12.8,4.9,23.4,14.3,31.9c9.2,8.5,20.2,12.7,33.2,12.7c9.2,0,17-1.1,23.2-3.3c3.7-1.3,6.3-2.6,7.6-3.9l0.7-0.7
			c0.2-0.4,0.3-0.7,0.4-0.9c0.4-3.3,0.7-6.9,0.7-10.9c0-4-0.2-6.1-0.5-6.4h-0.3c-0.2,1.1-0.6,2.4-1.3,3.9c-0.7,1.5-1.8,3.1-3.3,4.7
			c-1.5,1.6-3.3,3.2-5.5,4.9c-2.2,1.6-4.9,3.2-8.1,4.6c-3.6,1.6-8.2,2.4-13.9,2.4c-9.6,0-17.5-3.2-23.6-9.6
			c-6.6-6.9-9.9-16.5-9.9-28.5v-0.7v-0.1v-0.7c0-12.1,3.3-21.6,9.9-28.5c6.1-6.4,14-9.6,23.6-9.6c5.7,0,10.3,0.8,13.9,2.4
			c3.2,1.4,5.9,3,8.1,4.6c2.2,1.6,4.1,3.3,5.5,4.9c1.5,1.6,2.6,3.2,3.3,4.7c0.7,1.5,1.2,2.8,1.3,3.9h0.3c0.4-0.3,0.5-2.4,0.5-6.4
			c0-4-0.2-7.6-0.7-10.9c-0.1-0.3-0.2-0.6-0.4-0.9l-0.7-0.7c-1.3-1.2-3.9-2.5-7.6-3.9C85,44,77.2,42.9,68,42.9
			C55,42.9,43.9,47.2,34.8,55.6"/>
	</defs>
	<clipPath id="SVGID_11_">
		<use xlink:href="#SVGID_10_"  style="overflow:visible;"/>
	</clipPath>
	
		<linearGradient id="SVGID_12_" gradientUnits="userSpaceOnUse" x1="84.8242" y1="145.5189" x2="85.8242" y2="145.5189" gradientTransform="matrix(366.9867 0 0 -366.9867 -31108.8691 53493.6328)">
		<stop  offset="0" style="stop-color:#C0A06D"/>
		<stop  offset="3.846150e-04" style="stop-color:#C0A06D"/>
		<stop  offset="0.3305" style="stop-color:#BBB099"/>
		<stop  offset="0.7825" style="stop-color:#7D663E"/>
		<stop  offset="0.9881" style="stop-color:#796B40"/>
		<stop  offset="1" style="stop-color:#796B40"/>
	</linearGradient>
	<rect x="20.5" y="42.9" class="st3" width="367" height="94.4"/>
</g>
</svg>
