<svg xmlns="http://www.w3.org/2000/svg" width="12" height="12" viewBox="0 0 12 12">
    <g fill="none" fill-rule="evenodd">
        <g fill="#B7996D" fill-rule="nonzero">
            <g>
                <g>
                    <path d="M6 12c.188 0 .363-.05.527-.148.164-.1.288-.235.371-.407l2.844-6.047C9.914 5.034 10 4.568 10 4c0-1.104-.39-2.047-1.172-2.828C8.047.39 7.104 0 6 0 4.896 0 3.953.39 3.172 1.172 2.39 1.953 2 2.896 2 4c0 .568.086 1.034.258 1.398l2.851 6.047c.079.172.2.308.364.407.164.099.34.148.527.148zm0-6c-.552 0-1.023-.195-1.414-.586C4.196 5.024 4 4.552 4 4c0-.552.195-1.023.586-1.414C4.976 2.196 5.448 2 6 2c.552 0 1.023.195 1.414.586.39.39.586.862.586 1.414 0 .552-.195 1.023-.586 1.414C7.024 5.804 6.552 6 6 6z" transform="translate(-1411 -4077) translate(0 3067) translate(1411 1010)"/>
                </g>
            </g>
        </g>
    </g>
</svg>
