<svg xmlns="http://www.w3.org/2000/svg" width="20" height="20" viewBox="0 0 20 20">
    <g fill="none" fill-rule="evenodd">
        <g fill="#FFF" fill-rule="nonzero">
            <path d="M329.75 143.758c.362-.412.327-1.043-.079-1.41l-8.938-8.078c-.406-.367-1.056-.359-1.453.017l-8.969 8.492c-.397.376-.417 1.007-.043 1.408l.225.242c.373.4.976.448 1.346.106l.67-.62v9.077c0 .557.437 1.008.976 1.008h3.496c.538 0 .975-.45.975-1.008v-6.35h4.46v6.35c-.008.557.377 1.008.916 1.008h3.705c.539 0 .975-.451.975-1.008v-8.95l.414.376c.228.207.707.04 1.07-.371l.253-.289z" transform="translate(-310 -134)"/>
        </g>
    </g>
</svg>
