<svg xmlns="http://www.w3.org/2000/svg" width="25" height="24" viewBox="0 0 25 24">
    <path fill="#222" fill-opacity=".3" d="M7.5 6c.552 0 1 .448 1 1v7c0 .276-.224.5-.5.5-.285 0-.525.213-.558.497l-.838 7.12c-.06.503-.486.883-.993.883h-.358c-.514 0-.944-.39-.995-.9l-.708-7.102c-.029-.283-.266-.498-.55-.498-.276 0-.5-.224-.5-.5V7c0-.552.448-1 1-1h4zm7 0c.552 0 1 .448 1 1v7c0 .276-.224.5-.5.5-.285 0-.525.213-.558.497l-.838 7.12c-.06.503-.486.883-.993.883h-.358c-.514 0-.944-.39-.995-.9l-.708-7.102c-.029-.283-.266-.498-.55-.498-.276 0-.5-.224-.5-.5V7c0-.552.448-1 1-1h4zm7 0c.552 0 1 .448 1 1v7c0 .276-.224.5-.5.5-.285 0-.525.213-.558.497l-.838 7.12c-.06.503-.486.883-.993.883h-.358c-.514 0-.944-.39-.995-.9l-.708-7.102c-.029-.283-.266-.498-.55-.498-.276 0-.5-.224-.5-.5V7c0-.552.448-1 1-1h4zm-16-5c1.105 0 2 .895 2 2s-.895 2-2 2-2-.895-2-2 .895-2 2-2zm7 0c1.105 0 2 .895 2 2s-.895 2-2 2-2-.895-2-2 .895-2 2-2zm7 0c1.105 0 2 .895 2 2s-.895 2-2 2-2-.895-2-2 .895-2 2-2z"/>
</svg>
