<svg xmlns="http://www.w3.org/2000/svg" width="24" height="24" viewBox="0 0 24 24">
    <g fill="none" fill-opacity=".6" fill-rule="evenodd">
        <g fill="#FFF" fill-rule="nonzero">
            <path d="M10 6c.552 0 1 .448 1 1v7c0 .276-.224.5-.5.5-.285 0-.525.213-.558.497l-.838 7.12c-.06.503-.486.883-.993.883h-.358c-.514 0-.944-.39-.995-.9l-.708-7.102c-.029-.283-.266-.498-.55-.498-.276 0-.5-.224-.5-.5V7c0-.552.448-1 1-1h4zm8 0c.552 0 1 .448 1 1v7c0 .276-.224.5-.5.5-.285 0-.525.213-.558.497l-.838 7.12c-.06.503-.486.883-.993.883h-.358c-.514 0-.944-.39-.995-.9l-.708-7.102c-.029-.283-.266-.498-.55-.498-.276 0-.5-.224-.5-.5V7c0-.552.448-1 1-1h4zM8 1c1.105 0 2 .895 2 2s-.895 2-2 2-2-.895-2-2 .895-2 2-2zm8 0c1.105 0 2 .895 2 2s-.895 2-2 2-2-.895-2-2 .895-2 2-2z"/>
        </g>
    </g>
</svg>
