<svg xmlns="http://www.w3.org/2000/svg" width="20" height="20" viewBox="0 0 20 20">
    <g fill="none" fill-rule="evenodd">
        <g fill="#FFFFFE" fill-rule="nonzero">
            <g>
                <g>
                    <path d="M16.77 18c.333 0 .621-.12.865-.36.243-.24.365-.525.365-.854V4.643c0-.329-.122-.614-.365-.854-.244-.24-.532-.36-.866-.36h-1.23v-.911c0-.418-.151-.775-.452-1.072C14.785 1.149 14.423 1 14 1h-.615c-.423 0-.786.149-1.087.446-.301.297-.452.654-.452 1.072v.91H8.154v-.91c0-.418-.15-.775-.452-1.072C7.4 1.149 7.038 1 6.615 1H6c-.423 0-.785.149-1.087.446-.3.297-.451.654-.451 1.072v.91H3.23c-.334 0-.622.12-.866.361-.243.24-.365.525-.365.854v12.143c0 .329.122.613.365.854.244.24.532.36.866.36h13.538zM6.614 5.554H6c-.083 0-.155-.03-.216-.09s-.092-.132-.092-.214V2.518c0-.082.03-.154.092-.214.06-.06.133-.09.216-.09h.615c.084 0 .156.03.217.09.06.06.091.132.091.214V5.25c0 .082-.03.153-.091.213s-.133.09-.217.09zm7.385 0h-.615c-.084 0-.156-.03-.217-.09-.06-.06-.091-.132-.091-.214V2.518c0-.082.03-.154.091-.214s.133-.09.217-.09H14c.083 0 .155.03.216.09s.092.132.092.214V5.25c0 .082-.03.153-.092.213-.06.06-.133.09-.216.09zm-8 4.25H3.23V7.07H6v2.733zm3.692 0H6.615V7.07h3.077v2.733zm3.693 0h-3.077V7.07h3.077v2.733zm3.384 0H14V7.07h2.77v2.733zM6 13.446H3.23v-3.035H6v3.035zm3.692 0H6.615v-3.035h3.077v3.035zm3.693 0h-3.077v-3.035h3.077v3.035zm3.384 0H14v-3.035h2.77v3.035zM6 16.786H3.23v-2.732H6v2.732zm3.692 0H6.615v-2.732h3.077v2.732zm3.693 0h-3.077v-2.732h3.077v2.732zm3.384 0H14v-2.732h2.77v2.732z" transform="translate(-492 -4458) translate(0 3067) translate(492 1391)"/>
                </g>
            </g>
        </g>
    </g>
</svg>
