<svg xmlns="http://www.w3.org/2000/svg" width="30" height="31" viewBox="0 0 30 31">
    <g fill="none" fill-rule="evenodd">
        <g fill="#B7996D" fill-rule="nonzero">
            <g>
                <g>
                    <path d="M17.871 15c0 1.586-1.285 2.871-2.871 2.871S12.129 16.586 12.129 15s1.285-2.871 2.871-2.871 2.871 1.285 2.871 2.871z" transform="translate(-856 -4646) translate(0 3067) translate(856 1579.5)"/>
                    <path d="M21.714 9.92c-.138-.374-.358-.712-.644-.99-.278-.286-.616-.506-.99-.644-.304-.118-.76-.259-1.6-.297-.908-.041-1.18-.05-3.48-.05s-2.572.008-3.48.05c-.84.038-1.297.179-1.6.297-.374.138-.713.358-.99.644-.286.278-.506.616-.645.99-.118.304-.258.76-.296 1.6-.042.908-.05 1.18-.05 3.48s.008 2.572.05 3.48c.038.84.178 1.297.296 1.6.139.374.358.713.645.99.277.287.616.507.99.645.303.118.76.258 1.6.296.908.042 1.18.05 3.48.05s2.572-.008 3.48-.05c.84-.038 1.296-.178 1.6-.296.751-.29 1.345-.884 1.634-1.635.118-.303.259-.76.297-1.6.042-.908.05-1.18.05-3.48s-.008-2.572-.05-3.48c-.038-.84-.178-1.296-.297-1.6zM15 19.423c-2.443 0-4.423-1.98-4.423-4.423s1.98-4.423 4.423-4.423 4.423 1.98 4.423 4.423-1.98 4.423-4.423 4.423zm4.598-7.987c-.571 0-1.034-.463-1.034-1.034 0-.57.463-1.033 1.034-1.033.57 0 1.033.462 1.033 1.033s-.462 1.034-1.033 1.034z" transform="translate(-856 -4646) translate(0 3067) translate(856 1579.5)"/>
                    <path d="M15 0C6.717 0 0 6.717 0 15c0 8.283 6.717 15 15 15 8.283 0 15-6.717 15-15 0-8.283-6.717-15-15-15zm8.561 18.551c-.041.917-.187 1.543-.4 2.09-.447 1.158-1.362 2.073-2.52 2.52-.547.213-1.173.358-2.09.4-.918.042-1.212.052-3.55.052-2.34 0-2.633-.01-3.552-.052-.917-.042-1.543-.187-2.09-.4-.576-.216-1.096-.555-1.526-.994-.439-.43-.777-.95-.994-1.525-.213-.548-.358-1.174-.4-2.09-.042-.92-.052-1.213-.052-3.552 0-2.34.01-2.633.052-3.551.041-.917.187-1.543.4-2.09.216-.576.555-1.096.994-1.526.43-.439.95-.778 1.525-.994.548-.213 1.174-.358 2.09-.4.92-.042 1.213-.052 3.552-.052 2.34 0 2.633.01 3.551.052.917.042 1.543.187 2.09.4.576.216 1.096.555 1.527.994.438.43.777.95.993 1.525.213.548.359 1.174.4 2.09.042.92.052 1.213.052 3.552 0 2.34-.01 2.633-.052 3.551z" transform="translate(-856 -4646) translate(0 3067) translate(856 1579.5)"/>
                </g>
            </g>
        </g>
    </g>
</svg>
