<svg xmlns="http://www.w3.org/2000/svg" width="31" height="31" viewBox="0 0 31 31">
    <g fill="none" fill-rule="evenodd">
        <g fill="#B7996D" fill-rule="nonzero">
            <g>
                <g>
                    <path d="M15 0c8.284 0 15 6.716 15 15 0 8.284-6.716 15-15 15-8.284 0-15-6.716-15-15C0 6.716 6.716 0 15 0zm2.693 10c-1.586 0-2.871 1.244-2.871 2.778 0 .217.024.429.073.633-2.387-.117-4.504-1.222-5.92-2.903-.247.41-.388.887-.388 1.397 0 .963.507 1.813 1.277 2.311-.471-.014-.914-.14-1.3-.347l-.001.035c0 1.346.99 2.469 2.303 2.724-.24.063-.495.096-.756.096-.185 0-.366-.018-.54-.05.365 1.104 1.426 1.906 2.683 1.93-.983.744-2.221 1.188-3.568 1.188-.232 0-.46-.014-.685-.039C9.272 20.541 10.782 21 12.404 21c5.284 0 8.173-4.23 8.173-7.901 0-.12-.003-.24-.009-.36.562-.391 1.05-.88 1.432-1.436-.513.22-1.068.37-1.65.437.595-.345 1.049-.888 1.265-1.537-.557.319-1.17.55-1.825.674-.524-.54-1.27-.877-2.097-.877z" transform="translate(-1222 -4646) translate(0 3067) translate(1222.5 1579.5)"/>
                </g>
            </g>
        </g>
    </g>
</svg>
