<svg xmlns="http://www.w3.org/2000/svg" width="22" height="22" viewBox="0 0 22 22">
    <path fill="#222" d="M0 11.02c0 .682.478 1.244 1.096 1.326l.157.01h16.394l-7.823 7.303c-.52.486-.573 1.33-.117 1.885.418.509 1.118.598 1.632.235l.136-.11 9.973-9.31c.2-.186.332-.426.391-.682.102-.194.161-.418.161-.656 0-.229-.054-.444-.149-.632-.041-.234-.143-.457-.301-.642l-.102-.107L11.475.33l-.136-.11c-.514-.362-1.214-.273-1.632.236-.426.518-.408 1.288.02 1.783l.097.102 7.867 7.343H1.253C.56 9.685 0 10.284 0 11.022z"/>
</svg>
