<svg xmlns="http://www.w3.org/2000/svg" width="35" height="40" viewBox="0 0 35 40">
    <g fill="none" fill-rule="evenodd">
        <g fill="#FFF" fill-rule="nonzero">
            <g>
                <path d="M1426.617 570.196c.773-.29 1.611-.257 2.36.09 1.546.716 2.226 2.569 1.516 4.13-.306.672-.822 1.18-1.432 1.486 2.087 1.507 3.607 3.607 4.37 6.088 1.056 3.443.637 7.413-1.214 11.48l-1.556 3.42c-.872 1.917-.73 5.02.408 8.972.355 1.231-.021 2.515-.981 3.351-.596.519-1.328.787-2.073.787-.452 0-.909-.099-1.343-.3l-16.724-7.752c-.543 1.993.408 4.153 2.328 5.044 1.559.722 3.384.434 4.65-.733.281-.259.717-.239.973.044.256.284.237.723-.044.982-1.062.979-2.42 1.49-3.799 1.49-.796 0-1.599-.17-2.354-.521-2.611-1.21-3.868-4.195-3.016-6.89l-7.826-3.629c-1.15-.532-1.862-1.656-1.86-2.932.002-1.28.722-2.405 1.878-2.935 3.713-1.704 6.137-3.618 7.009-5.534l1.556-3.42c1.85-4.068 4.56-6.976 7.836-8.41.35-.152.754.01.906.361.15.352-.01.761-.358.914-2.96 1.295-5.427 3.963-7.134 7.715l-1.556 3.42c-1.026 2.256-3.613 4.348-7.689 6.218-.67.308-1.07.933-1.072 1.674-.001.736.395 1.36 1.058 1.667l25.812 11.965c.664.307 1.39.204 1.942-.277.556-.483.765-1.198.56-1.91-1.25-4.34-1.364-7.684-.338-9.94l1.556-3.42c1.707-3.752 2.105-7.379 1.15-10.489-.88-2.863-2.909-5.156-5.713-6.456h-.001c-2.003-.929-4.145-1.234-6.196-.883-.375.064-.73-.19-.793-.569-.064-.378.189-.737.563-.8 1.558-.267 3.158-.2 4.723.187-.174-.688-.11-1.41.187-2.065.344-.756.959-1.331 1.731-1.62zm-2.432 32.879c.159-.349.567-.502.913-.341l2.98 1.381c.346.16.497.573.339.921-.116.255-.365.405-.626.405-.096 0-.194-.02-.287-.063l-2.98-1.382c-.346-.16-.498-.572-.339-.921zm-20.957-9.715c.158-.348.567-.501.912-.341l18.39 8.524c.345.16.496.573.338.921-.116.255-.365.405-.626.405-.096 0-.194-.02-.287-.064l-18.389-8.524c-.345-.16-.497-.572-.338-.92zm24.463-21.97c-.2 0-.402.036-.595.108-.428.16-.769.48-.96.898-.19.419-.207.887-.049 1.32.159.431.475.775.89.967.855.397 1.872.017 2.266-.848.393-.864.016-1.89-.84-2.287-.227-.105-.47-.158-.712-.158z" transform="translate(-1399 -3637) translate(0 3067)"/>
            </g>
        </g>
    </g>
</svg>
