<svg xmlns="http://www.w3.org/2000/svg" width="24" height="24" viewBox="0 0 24 24">
    <g fill="none" fill-opacity=".7" fill-rule="evenodd">
        <g fill="#FFF" fill-rule="nonzero">
            <g>
                <path d="M5.204 4C4.54 4 4 4.314 4 4.926c-.002.616.536.926 1.204.926h4.394v3.013c-.69.164-1.201.745-1.201 1.434 0 .688.51 1.269 1.201 1.433v1.527h-.806c-.221 0-.4.166-.4.37 0 .205.179.371.4.371h2.399c.221 0 .4-.166.4-.37 0-.205-.179-.37-.4-.37h-.793v-1.528c.688-.166 1.198-.746 1.198-1.433 0-.688-.51-1.268-1.198-1.433V5.852h4.398c.66 0 1.2-.309 1.204-.916.004-.619-.535-.936-1.204-.936H5.204z" transform="translate(2 6)"/>
                <path d="M6.375 0l.093.007c.34.052.573.382.526.736l-.971 7.233c-.076.563-.163.82-.47 1.121.136.167.233.37.286.596l.898 3.819c.05.21-.071.424-.269.476-.198.053-.398-.075-.448-.286l-.897-3.819c-.038-.16-.119-.297-.228-.4-.153.043-.314.061-.488.061h-2.36c-.08.094-.14.21-.17.34L.98 13.701c-.05.211-.25.339-.448.286-.198-.052-.318-.266-.269-.476l.898-3.82c.012-.05.026-.1.042-.148H.622c-.36 0-.622-.469-.622-.848 0-.378.261-.848.621-.848h3.69c.335 0 .456-.065.481-.251L5.763.56c.048-.356.362-.606.705-.554z" transform="translate(2 6) matrix(-1 0 0 1 7 0)"/>
                <path d="M19.375 0l.093.007c.34.052.573.382.526.736l-.971 7.233c-.076.563-.163.82-.47 1.121.136.167.233.37.286.596l.898 3.819c.05.21-.071.424-.269.476-.198.053-.398-.075-.448-.286l-.897-3.819c-.038-.16-.119-.297-.228-.4-.153.043-.314.061-.488.061h-2.36c-.08.094-.14.21-.17.34l-.897 3.818c-.05.211-.25.339-.448.286-.198-.052-.318-.266-.269-.476l.898-3.82c.012-.05.026-.1.042-.148h-.581c-.36 0-.622-.469-.622-.848 0-.378.261-.848.621-.848h3.69c.335 0 .456-.065.481-.251L18.763.56c.048-.356.362-.606.705-.554z" transform="translate(2 6)"/>
            </g>
        </g>
    </g>
</svg>
