<svg xmlns="http://www.w3.org/2000/svg" width="20" height="20" viewBox="0 0 20 20">
    <g fill="none" fill-rule="evenodd">
        <g fill="#FFF" fill-rule="nonzero">
            <g>
                <g>
                    <path d="M10 13c.17 0 .316-.066.44-.198l4.374-4.667c.124-.132.186-.288.186-.468 0-.18-.062-.337-.186-.47-.123-.131-.27-.197-.439-.197h-8.75c-.17 0-.316.066-.44.198-.123.132-.185.288-.185.469 0 .18.062.336.186.468l4.375 4.667c.123.132.27.198.439.198z" transform="translate(-672 -4458) translate(0 3067) translate(672 1391)"/>
                </g>
            </g>
        </g>
    </g>
</svg>
