<svg xmlns="http://www.w3.org/2000/svg" width="20" height="20" viewBox="0 0 20 20">
    <g fill="none" fill-rule="evenodd">
        <g fill="#A5ACB9" fill-rule="nonzero">
            <g>
                <path d="M.14.513L.083.579c-.128.185-.11.442.055.607L8.952 10 .14 18.814c-.185.186-.185.487 0 .673l.374.374.066.055c.185.128.442.11.607-.055L10 11.047l8.814 8.814c.186.185.487.185.673 0l.374-.374.055-.066c.128-.185.11-.442-.055-.607L11.047 10l8.814-8.814c.185-.186.185-.487 0-.673l-.374-.374-.066-.055c-.185-.128-.442-.11-.607.055L9.999 8.952 1.186.14C1-.046.7-.046.513.14L.139.513z" transform="translate(-1047 -6524) translate(990 6467) translate(57 57)"/>
            </g>
        </g>
    </g>
</svg>
