<svg xmlns="http://www.w3.org/2000/svg" width="20" height="20" viewBox="0 0 20 20">
    <g fill="none" fill-rule="evenodd">
        <g stroke="#A5ACB9" stroke-width="2">
            <g>
                <path d="M63.923 58.53c-.718 1.224-1.13 2.65-1.13 4.172 0 2.277.923 4.34 2.415 5.832 1.492 1.493 3.553 2.416 5.83 2.416 1.685 0 3.252-.505 4.558-1.373-.436 1.44-1.206 2.72-2.22 3.752C71.747 74.986 69.492 76 67 76c-2.485 0-4.735-1.008-6.364-2.637C59.007 71.733 58 69.482 58 66.995c0-2.415.95-4.609 2.498-6.226.946-.988 2.114-1.761 3.425-2.238z" transform="translate(-859 -6524) translate(802 6467)"/>
            </g>
        </g>
    </g>
</svg>
