<svg xmlns="http://www.w3.org/2000/svg" width="22" height="22" viewBox="0 0 22 22">
    <path fill="#222" d="M22 11.02c0 .682-.478 1.244-1.096 1.326l-.157.01H4.353l7.823 7.303c.52.486.573 1.33.117 1.885-.418.509-1.118.598-1.632.235l-.136-.11-9.973-9.31c-.2-.186-.332-.426-.391-.682C.059 11.483 0 11.259 0 11.02c0-.229.054-.444.149-.632.041-.234.143-.457.301-.642l.102-.107L10.525.33l.136-.11c.514-.362 1.214-.273 1.632.236.426.518.408 1.288-.02 1.783l-.097.102-7.867 7.343h16.438c.692 0 1.253.599 1.253 1.337z"/>
</svg>
