<svg xmlns="http://www.w3.org/2000/svg" width="20" height="21" viewBox="0 0 20 21">
    <g fill="none" fill-opacity=".5" fill-rule="evenodd">
        <g fill="#FFF" fill-rule="nonzero">
            <g>
                <path d="M9.5.013c.026.028-.01.051-.025.063-1.636 1.33-2.682 3.358-2.682 5.63 0 4.004 3.244 7.25 7.245 7.25 2.41 0 4.544-1.177 5.861-2.987.034-.046.031-.068.066-.068.023 0 .035.033.035.1 0 5.525-4.477 10.004-10 10.004S0 15.525 0 10C0 4.674 4.161.32 9.409.013c.028-.002.065-.028.09 0zM4.822 3.898C3.094 5.368 2 7.561 2 10c0 4.421 3.582 8.005 8 8.005 2.668 0 5.03-1.306 6.484-3.311l.058-.084-.038.012c-.692.191-1.412.303-2.149.328l-.317.005c-5.106 0-9.245-4.14-9.245-9.248 0-.616.06-1.222.178-1.81l.031-.149-.18.15z" transform="translate(-1414 -4266) translate(0 3067) translate(1414 1199)"/>
            </g>
        </g>
    </g>
</svg>
