<svg xmlns="http://www.w3.org/2000/svg" width="12" height="12" viewBox="0 0 12 12">
    <g fill="none" fill-rule="evenodd">
        <g fill="#B7996D" fill-rule="nonzero">
            <g>
                <g>
                    <path d="M8.592 11c.436 0 .876-.12 1.321-.362.479-.265.767-.516.867-.753.052-.118.102-.28.149-.487.047-.206.071-.372.071-.5 0-.067-.007-.116-.021-.15-.029-.085-.209-.21-.54-.376-.09-.052-.218-.123-.384-.213-.165-.09-.316-.173-.45-.248-.136-.076-.262-.15-.38-.22l-.178-.125c-.1-.069-.184-.12-.252-.153-.069-.033-.136-.05-.203-.05-.094 0-.213.068-.355.203s-.272.282-.39.44c-.119.159-.244.306-.377.44-.132.136-.241.203-.327.203-.042 0-.095-.012-.16-.035-.063-.024-.112-.044-.145-.06-.033-.017-.09-.05-.17-.1-.08-.05-.126-.077-.135-.082-.649-.36-1.205-.772-1.67-1.236-.463-.464-.875-1.02-1.235-1.669l-.082-.135c-.05-.08-.083-.137-.1-.17-.016-.033-.036-.082-.06-.146-.023-.064-.035-.117-.035-.16 0-.085.067-.194.202-.326.135-.133.282-.258.44-.377.16-.118.306-.248.44-.39.136-.142.203-.26.203-.355 0-.067-.016-.134-.05-.203-.032-.068-.083-.152-.152-.252l-.124-.177c-.071-.119-.145-.245-.22-.38-.076-.135-.16-.286-.25-.451-.09-.166-.16-.294-.212-.384-.166-.331-.291-.511-.377-.54C3.218 1.007 3.17 1 3.102 1c-.128 0-.294.024-.5.071-.206.047-.369.097-.487.15-.237.099-.488.387-.753.866-.241.445-.362.885-.362 1.32 0 .129.008.254.025.377.016.123.046.26.089.408.042.15.077.26.103.334.026.074.074.205.145.394.071.19.114.306.128.348.166.464.362.879.59 1.243.374.602.885 1.227 1.534 1.875.648.649 1.273 1.16 1.875 1.534.364.228.779.424 1.243.59.042.014.158.057.348.128.189.07.32.12.394.145.073.026.184.06.334.103.149.043.285.073.408.09.123.016.248.024.376.024z" transform="translate(-1224 -4077) translate(0 3067) translate(1224 1010)"/>
                </g>
            </g>
        </g>
    </g>
</svg>
