<svg xmlns="http://www.w3.org/2000/svg" width="24" height="24" viewBox="0 0 24 24">
    <g fill="none" fill-opacity=".6" fill-rule="evenodd">
        <g fill="#FFF" fill-rule="nonzero">
            <path d="M20 12c.552 0 1 .448 1 1v5c0 .552-.448 1-1 1h-1c-.552 0-1-.448-1-1v-1H6v1c0 .552-.448 1-1 1H4c-.552 0-1-.448-1-1v-5c0-.552.448-1 1-1h16zm-4-5.8l3.287.986c.423.127.713.516.713.958V11h-2v-1c0-.513-.386-.936-.883-.993L17 9h-3c-.513 0-.936.386-.993.883L13 10v1h-2v-1c0-.513-.386-.936-.883-.993L10 9H7c-.513 0-.936.386-.993.883L6 10v1H4V8.144c0-.442.29-.83.713-.958L8 6.2c2.61-.783 5.39-.783 8 0z"/>
        </g>
    </g>
</svg>
