<svg xmlns="http://www.w3.org/2000/svg" width="14" height="10" viewBox="0 0 14 10">
    <g fill="none" fill-rule="evenodd">
        <g fill="#FFF" fill-rule="nonzero">
            <g>
                <path d="M13.535 5.62c.256 0 .465.21.465.468v7.444c0 .143-.064.276-.175.366-.111.089-.255.122-.394.09-1.115-.256-3.07-.553-4.925-.096 1.072-1.022 2.587-1.202 3.505-1.205.654-.001 1.187-.538 1.187-1.195V5.62zm-12.733 0v5.872c0 .657.533 1.194 1.187 1.195.918.002 2.433.183 3.505 1.205-1.855-.457-3.81-.16-4.925.096-.14.032-.283-.001-.394-.09-.111-.09-.175-.223-.175-.366V6.088c0-.258.209-.468.465-.468h.337zM1.988 4l.14.002c1.109.024 2.963.323 3.947 1.92.042.067.064.15.064.236v7.35C4.887 12.19 3.073 11.964 1.99 11.96c-.256 0-.465-.21-.465-.468V4.468c0-.125.048-.243.137-.332.087-.088.203-.136.326-.136zm10.025 0c.122 0 .238.048.325.136.089.089.137.207.137.332v7.024c0 .257-.209.467-.465.468-1.083.003-2.897.23-4.149 1.549v-7.35c0-.088.022-.17.064-.238C8.952 4.256 10.926 4.003 12.011 4z" transform="translate(-1245 -34) translate(1245 30)"/>
            </g>
        </g>
    </g>
</svg>
