<svg xmlns="http://www.w3.org/2000/svg" width="13" height="10" viewBox="0 0 13 10">
    <g fill="none" fill-rule="evenodd">
        <g fill="#FFF" fill-rule="nonzero">
            <g>
                <path d="M12.13 7.073c-.58-.64-1.37-1.145-2.365-1.516C8.768 5.186 7.68 5 6.5 5c-.88 0-1.722.11-2.524.329-.803.219-1.495.515-2.075.888-.58.373-1.042.817-1.386 1.331C.172 8.063 0 8.602 0 9.166c0 .65.219 1.26.656 1.83.438.568 1.037 1.045 1.796 1.431-.053.174-.116.339-.189.495-.072.156-.137.284-.196.384-.058.1-.136.21-.235.332-.1.121-.174.207-.225.257l-.25.247-.225.225c-.005.002-.025.022-.058.059l-.051.055-.044.058c-.024.033-.035.054-.032.062.002.009-.003.03-.015.065s-.01.06.004.078v.007c.02.078.061.14.127.189.065.047.139.067.221.058.314-.035.59-.082.827-.143 1.267-.291 2.38-.816 3.337-1.576.363.035.713.053 1.052.053 1.18 0 2.268-.186 3.265-.557.996-.371 1.784-.877 2.364-1.517.58-.64.871-1.337.871-2.092 0-.755-.29-1.453-.87-2.093z" transform="translate(-1363 -35) translate(1363 30)"/>
            </g>
        </g>
    </g>
</svg>
