<svg xmlns="http://www.w3.org/2000/svg" width="23" height="22" viewBox="0 0 23 22">
    <g fill="none" fill-rule="evenodd">
        <g fill="#FFD75C" fill-rule="nonzero">
            <g>
                <g>
                    <g>
                        <path d="M11.02 0c.682 0 1.244.478 1.326 1.096l.01.157v16.394l7.303-7.823c.486-.52 1.33-.573 1.885-.117.509.418.598 1.118.235 1.632l-.11.136-9.31 9.973c-.186.2-.426.332-.682.391-.194.102-.418.161-.656.161-.229 0-.444-.054-.632-.149-.234-.041-.457-.143-.642-.301l-.107-.102-9.31-9.973-.11-.136c-.362-.514-.273-1.214.236-1.632.518-.426 1.288-.408 1.783.02l.102.097 7.343 7.867V1.253C9.685.56 10.284 0 11.022 0z" transform="translate(-857 -5741) translate(801.5 5685) translate(56 56) matrix(0 1 1 0 0 0) matrix(1 0 0 -1 0 22)"/>
                    </g>
                </g>
            </g>
        </g>
    </g>
</svg>
