<svg xmlns="http://www.w3.org/2000/svg" width="13" height="12" viewBox="0 0 13 12">
    <g fill="none" fill-rule="evenodd">
        <g fill="#B7996D" fill-rule="nonzero">
            <g>
                <g>
                    <path d="M6.007 7.727c.102 0 .214-.019.335-.057.12-.039.248-.096.385-.173.136-.077.252-.146.348-.208.096-.061.216-.142.361-.242s.24-.166.285-.195c.41-.273 1.455-.966 3.134-2.078.326-.217.598-.48.817-.786.219-.307.328-.629.328-.965 0-.282-.106-.522-.318-.723-.212-.2-.463-.3-.753-.3H1.07c-.343 0-.608.11-.793.332-.185.222-.278.499-.278.831 0 .269.123.56.368.873.246.313.507.56.784.738.152.102.61.406 1.373.911s1.348.894 1.754 1.167c.045.03.14.094.285.195.145.1.265.18.361.242.096.062.212.131.348.208.137.077.265.134.385.173.121.038.233.057.335.057h.014zM10.929 11c.294 0 .546-.1.756-.3.21-.2.315-.441.315-.723V4.902c-.192.205-.415.39-.67.556-1.464.946-2.576 1.681-3.334 2.205-.255.18-.461.319-.62.419-.158.1-.37.202-.633.307-.263.104-.509.156-.736.156h-.014c-.227 0-.473-.052-.736-.156-.264-.105-.475-.207-.633-.307-.159-.1-.365-.24-.62-.419-.602-.422-1.712-1.157-3.328-2.205-.254-.162-.48-.347-.676-.556v5.075c0 .282.105.522.315.723.21.2.462.3.756.3h9.858z" transform="translate(-1032 -4077) translate(0 3067) translate(1032.5 1010)"/>
                </g>
            </g>
        </g>
    </g>
</svg>
