<svg xmlns="http://www.w3.org/2000/svg" width="18" height="18" viewBox="0 0 18 18">
    <g fill="none" fill-opacity=".5" fill-rule="evenodd">
        <g fill="#FFF" fill-rule="nonzero">
            <g>
                <g>
                    <path d="M.293.607L.21.7c-.305.392-.278.96.083 1.32L7.272 9l-6.98 6.98c-.39.39-.39 1.023 0 1.413l.315.314.094.083c.392.305.96.278 1.32-.083L9 10.728l6.98 6.98c.39.39 1.023.39 1.413 0l.314-.315.083-.094c.305-.392.278-.96-.083-1.32L10.728 9l6.98-6.98c.39-.39.39-1.023 0-1.413l-.315-.314L17.3.21c-.392-.305-.96-.278-1.32.083L9 7.272 2.02.292c-.39-.39-1.023-.39-1.413 0L.293.608z" transform="translate(-1228 -4268) translate(0 3067) translate(1228 1201)"/>
                </g>
            </g>
        </g>
    </g>
</svg>
