<svg xmlns="http://www.w3.org/2000/svg" width="24" height="24" viewBox="0 0 24 24">
    <g fill="none" fill-rule="evenodd">
        <g fill="#B7996D" fill-rule="nonzero">
            <g>
                <g>
                    <path d="M12 24c2.177 0 4.185-.536 6.023-1.61 1.839-1.072 3.295-2.528 4.368-4.367C23.464 16.185 24 14.177 24 12c0-2.177-.536-4.182-1.61-6.016-1.072-1.843-2.528-3.302-4.367-4.375C16.185.536 14.177 0 12 0 9.823 0 7.815.536 5.977 1.61 4.138 2.681 2.682 4.137 1.609 5.976.536 7.815 0 9.823 0 12c0 2.177.536 4.185 1.61 6.023 1.072 1.839 2.528 3.295 4.367 4.368C7.815 23.464 9.823 24 12 24zm1.5-18h-3c-.146 0-.266-.054-.36-.16-.093-.108-.14-.245-.14-.411V2.57c0-.166.047-.303.14-.41.094-.107.214-.161.36-.161h3c.146 0 .266.054.36.16.093.108.14.245.14.411V5.43c0 .166-.047.303-.14.41-.094.107-.214.161-.36.161zm2 14h-7c-.146 0-.266-.047-.36-.14-.093-.094-.14-.214-.14-.36V17c0-.146.047-.266.14-.36.094-.093.214-.14.36-.14H10v-5H8.5c-.146 0-.266-.047-.36-.14-.093-.094-.14-.214-.14-.36V8.5c0-.146.047-.266.14-.36.094-.093.214-.14.36-.14h5c.146 0 .266.047.36.14.093.094.14.214.14.36v8h1.5c.146 0 .266.047.36.14.093.094.14.214.14.36v2.5c0 .146-.047.266-.14.36-.094.093-.214.14-.36.14z" transform="translate(-1223 -3243) translate(0 3067) translate(1223 176)"/>
                </g>
            </g>
        </g>
    </g>
</svg>
