<svg xmlns="http://www.w3.org/2000/svg" width="14" height="14" viewBox="0 0 14 14">
    <g fill="none" fill-rule="evenodd">
        <g fill="#B7996D" fill-rule="nonzero">
            <g>
                <g>
                    <path d="M7 14c1.27 0 2.441-.313 3.514-.939 1.072-.626 1.921-1.475 2.547-2.547C13.687 9.44 14 8.27 14 7c0-1.27-.313-2.44-.939-3.51-.626-1.075-1.475-1.925-2.547-2.551C9.44.313 8.27 0 7 0 5.73 0 4.559.313 3.486.939 2.414 1.565 1.565 2.414.94 3.486.313 4.56 0 5.73 0 7c0 1.27.313 2.441.939 3.514.626 1.072 1.475 1.921 2.547 2.547C4.56 13.687 5.73 14 7 14zm.875-10.5h-1.75c-.085 0-.155-.027-.21-.082-.054-.055-.082-.125-.082-.21V1.75c0-.085.028-.155.082-.21.055-.054.125-.082.21-.082h1.75c.085 0 .155.028.21.082.054.055.082.125.082.21v1.458c0 .085-.028.155-.082.21-.055.055-.125.082-.21.082zm1.167 8.167H4.958c-.085 0-.155-.028-.21-.082-.054-.055-.081-.125-.081-.21V9.917c0-.085.027-.155.082-.21.054-.055.124-.082.21-.082h.874V6.708h-.875c-.085 0-.155-.027-.21-.082-.054-.054-.081-.124-.081-.21V4.959c0-.085.027-.155.082-.21.054-.054.124-.081.21-.081h2.916c.085 0 .155.027.21.082.054.054.082.124.082.21v4.666h.875c.085 0 .155.027.21.082.054.055.081.125.081.21v1.458c0 .085-.027.155-.082.21-.054.054-.124.082-.21.082z" transform="translate(-862 -3248) translate(0 3067) translate(862 181)"/>
                </g>
            </g>
        </g>
    </g>
</svg>
