<svg xmlns="http://www.w3.org/2000/svg" width="24" height="24" viewBox="0 0 24 24">
    <g fill="none" fill-opacity=".6" fill-rule="evenodd">
        <g fill="#FFF" fill-rule="nonzero">
            <path d="M4.5 7c.552 0 1 .448 1 1v6.042c0 .253-.205.458-.458.458-.262 0-.483.195-.514.455l-.754 6.166c-.061.502-.487.879-.993.879h-.185c-.513 0-.942-.387-.995-.897l-.637-6.147c-.027-.26-.245-.456-.506-.456-.253 0-.458-.205-.458-.458V8c0-.552.448-1 1-1h3.5zm6 0c.552 0 1 .448 1 1v6.042c0 .253-.205.458-.458.458-.262 0-.483.195-.514.455l-.754 6.166c-.061.502-.487.879-.993.879h-.185c-.513 0-.942-.387-.995-.897l-.637-6.147c-.027-.26-.245-.456-.506-.456-.253 0-.458-.205-.458-.458V8c0-.552.448-1 1-1h3.5zm6 0c.552 0 1 .448 1 1v6.042c0 .253-.205.458-.458.458-.262 0-.483.195-.514.455l-.754 6.166c-.061.502-.487.879-.993.879h-.185c-.513 0-.942-.387-.995-.897l-.637-6.147c-.027-.26-.245-.456-.506-.456-.253 0-.458-.205-.458-.458V8c0-.552.448-1 1-1h3.5zm6 0c.552 0 1 .448 1 1v6.042c0 .253-.205.458-.458.458-.262 0-.483.195-.514.455l-.754 6.166c-.061.502-.487.879-.993.879h-.185c-.513 0-.942-.387-.995-.897l-.637-6.147c-.027-.26-.245-.456-.506-.456-.253 0-.458-.205-.458-.458V8c0-.552.448-1 1-1h3.5zM2.75 2.5c.966 0 1.75.784 1.75 1.75S3.716 6 2.75 6 1 5.216 1 4.25 1.784 2.5 2.75 2.5zm6 0c.966 0 1.75.784 1.75 1.75S9.716 6 8.75 6 7 5.216 7 4.25 7.784 2.5 8.75 2.5zm12 0c.966 0 1.75.784 1.75 1.75S21.716 6 20.75 6 19 5.216 19 4.25s.784-1.75 1.75-1.75zm-6 0c.966 0 1.75.784 1.75 1.75S15.716 6 14.75 6 13 5.216 13 4.25s.784-1.75 1.75-1.75z"/>
        </g>
    </g>
</svg>
