<svg xmlns="http://www.w3.org/2000/svg" width="24" height="24" viewBox="0 0 24 24">
    <g fill="none" fill-opacity=".7" fill-rule="evenodd">
        <g fill="#FFF" fill-rule="nonzero">
            <path d="M20.839 14.125c-.32-.514-1.012-.68-1.545-.37l-3.632 1.793c.209-.197.338-.472.338-.776 0-.6-.504-1.088-1.125-1.088h-3.41c-1.415 0-2.082-.966-4.465-.966l-4 .321v4h2.983c.001 0 1.668.947 2.517 1.478.758.474 1.115.483 1.692.483l3.725-.001c.466 0 .933-.192 1.45-.434.516-.242 5.088-2.948 5.088-2.948.532-.31.704-.977.384-1.492zM18.195 5s-1.107 1.335-1.918 1.452c-5.875.85-4.515 3.488-4.45 3.525 0 0 .459-.372.943-.503 3.072-.833 3.9-1.992 3.9-1.992s-1.419 2.183-4.134 2.876c-.6.153-1.383.592-1.815 1.347 0 0 .553.241.712.259.187-.336.431-.634.744-.866 2.913 1.45 4.764-.534 5.193-1.304C18.38 7.975 18.195 5 18.195 5z"/>
        </g>
    </g>
</svg>
