<svg xmlns="http://www.w3.org/2000/svg" width="16" height="16" viewBox="0 0 16 16">
    <g fill="none" fill-rule="evenodd">
        <g fill="#FFD75C" fill-rule="nonzero">
            <path d="M14.548 7.24l.11.095c.42.412.453 1.06.097 1.508l-.097.108-5.833 5.714c-.42.412-1.082.444-1.54.095l-.11-.095-5.833-5.714c-.456-.446-.456-1.17 0-1.616.42-.412 1.082-.444 1.54-.095l.11.095L8 12.24l5.008-4.905c.42-.412 1.083-.444 1.54-.095zm0-6l.11.095c.42.412.453 1.06.097 1.508l-.097.108-5.833 5.714c-.42.412-1.082.444-1.54.095l-.11-.095-5.833-5.714c-.456-.446-.456-1.17 0-1.616.42-.412 1.082-.444 1.54-.095l.11.095L8 6.24l5.008-4.905c.42-.412 1.083-.444 1.54-.095z"/>
        </g>
    </g>
</svg>
