<svg xmlns="http://www.w3.org/2000/svg" width="20" height="20" viewBox="0 0 20 20">
    <g fill="none" fill-rule="evenodd">
        <g fill="#FFFFFE" fill-rule="nonzero">
            <g>
                <g>
                    <path d="M2.5 16v-2.4h15V16H20v-4.2c0-.163-.062-.303-.186-.422-.123-.119-.27-.178-.439-.178H2.5V4.6c0-.162-.062-.303-.186-.422C2.191 4.06 2.044 4 1.875 4H.625c-.17 0-.316.06-.44.178C.063 4.297 0 4.438 0 4.6V16h2.5zm3.125-5.4c.69 0 1.28-.234 1.768-.703s.732-1.034.732-1.697c0-.662-.244-1.228-.732-1.697-.489-.469-1.078-.703-1.768-.703s-1.28.234-1.768.703-.732 1.034-.732 1.697.244 1.228.732 1.697c.489.469 1.078.703 1.768.703zM20 10.6V10c0-.994-.366-1.842-1.099-2.545C18.17 6.752 17.285 6.4 16.25 6.4H9.375c-.17 0-.316.06-.44.178-.123.119-.185.26-.185.422v3.6H20z" transform="translate(-1043 -4461) translate(0 3067) translate(1043 1394)"/>
                </g>
            </g>
        </g>
    </g>
</svg>
