<svg xmlns="http://www.w3.org/2000/svg" width="24" height="24" viewBox="0 0 24 24">
    <g fill="none" fill-opacity=".7" fill-rule="evenodd">
        <g fill="#FFF" fill-rule="nonzero">
            <path d="M19 14.706v2.414c0 1.59-1.29 2.88-2.88 2.88H7.88C6.29 20 5 18.71 5 17.12v-2.414h14zm-10.938-3.53c.725 0 1.313.593 1.313 1.324 0 .731-.588 1.324-1.313 1.324-.724 0-1.312-.593-1.312-1.324 0-.731.588-1.324 1.313-1.324zm7.876 0c.724 0 1.312.593 1.312 1.324 0 .731-.588 1.324-1.313 1.324-.724 0-1.312-.593-1.312-1.324 0-.731.588-1.324 1.313-1.324zm-4.376-1.764c.725 0 1.313.592 1.313 1.323s-.588 1.324-1.313 1.324c-.724 0-1.312-.593-1.312-1.324 0-.73.588-1.323 1.313-1.323zm1.75-3.53c.725 0 1.313.593 1.313 1.324 0 .73-.588 1.323-1.313 1.323-.724 0-1.312-.592-1.312-1.323s.588-1.324 1.313-1.324zM10.25 5c.483 0 .875.395.875.882 0 .488-.392.883-.875.883s-.875-.395-.875-.883c0-.487.392-.882.875-.882z"/>
        </g>
    </g>
</svg>
