<svg xmlns="http://www.w3.org/2000/svg" width="30" height="30" viewBox="0 0 30 30">
    <g fill="none" fill-rule="evenodd">
        <g fill="#FFF" fill-rule="nonzero">
            <path d="M22.174 3c.72 0 1.304.59 1.304 1.316v5.262h5.218c.72 0 1.304.59 1.304 1.317v15.79C30 27.41 29.416 28 28.696 28H7.826c-.72 0-1.304-.59-1.304-1.316l-.001-5.263H1.304c-.72 0-1.304-.589-1.304-1.316V4.315C0 3.59.584 3 1.304 3h20.87zm5.217 9.21H9.131v13.158h18.26V12.211zM20.87 9.579V5.632H2.61v13.157H6.52v-7.894c0-.727.585-1.316 1.305-1.316l13.043-.001z"/>
        </g>
    </g>
</svg>
