<svg xmlns="http://www.w3.org/2000/svg" width="20" height="21" viewBox="0 0 20 21">
    <g fill="none" fill-rule="evenodd">
        <g fill="#FFFFFE" fill-rule="nonzero">
            <g>
                <g>
                    <path d="M10.5 10c1.077 0 1.996-.39 2.757-1.172C14.02 8.047 14.4 7.104 14.4 6c0-1.104-.383-2.045-1.148-2.823C12.494 2.392 11.577 2 10.5 2c-1.077 0-1.996.39-2.757 1.172C6.98 3.953 6.6 4.896 6.6 6c0 1.104.38 2.047 1.143 2.828C8.504 9.61 9.423 10 10.5 10zm4.337 8c.596 0 1.105-.27 1.528-.813.423-.541.635-1.19.635-1.947 0-.59-.029-1.148-.086-1.672-.058-.525-.165-1.052-.32-1.584-.156-.53-.354-.986-.594-1.364-.24-.379-.559-.688-.955-.927-.396-.24-.852-.36-1.366-.36-.887.89-1.947 1.334-3.179 1.334-1.232 0-2.292-.445-3.179-1.334-.514 0-.97.12-1.366.36-.396.24-.714.548-.955.927-.24.378-.438.833-.594 1.364-.155.532-.262 1.06-.32 1.584C4.03 14.092 4 14.649 4 15.24c0 .757.212 1.406.635 1.947.423.542.932.813 1.528.813h8.674z" transform="translate(-859 -4458) translate(0 3067) translate(859 1391.5)"/>
                </g>
            </g>
        </g>
    </g>
</svg>
