<?xml version="1.0" encoding="UTF-8"?> <svg xmlns="http://www.w3.org/2000/svg" id="Layer_1" data-name="Layer 1" width="26.56" height="26" viewBox="0 0 26.56 26"><defs><style> .cls-1 { fill: #fff; } </style></defs><path class="cls-1" d="M8.86,21.33a1.1,1.1,0,0,1,0-.16c0-.66,0-1.32,0-2a2,2,0,0,1,1.21-1.84,2,2,0,0,1,.88-.17c1.39,0,2.79,0,4.18,0a6.28,6.28,0,0,0,6.24-5.77,6.27,6.27,0,0,0-4.84-6.56,6,6,0,0,0-1.41-.16c-4.78-.09-9.56,0-14.35,0H.52A2,2,0,0,1,.56,4,4.12,4.12,0,0,1,3.83.59,4.21,4.21,0,0,1,4.7.5q4.51,0,9,0c.74,0,1.47,0,2.2.07A10.18,10.18,0,0,1,21.77,3a10.16,10.16,0,0,1,3.57,6,10.42,10.42,0,0,1-8.51,12.19,10.08,10.08,0,0,1-1.82.14H8.86Z"></path><path class="cls-1" d="M4.66,25.51a3.74,3.74,0,0,1-1.12-.15,4.13,4.13,0,0,1-3-3.4,3.77,3.77,0,0,1,0-.58c0-2.85,0-5.69,0-8.54A4,4,0,0,1,3.32,9a4.22,4.22,0,0,1,1.32-.19H15A2.07,2.07,0,1,1,15.16,13c-1.2,0-2.41,0-3.61,0H6.78a2.07,2.07,0,0,0-1.47.56,2,2,0,0,0-.65,1.51V25.51Z"></path></svg> 