<svg xmlns="http://www.w3.org/2000/svg" width="24" height="24" viewBox="0 0 24 24">
    <g fill="none" fill-rule="evenodd">
        <g fill="#B7996D" fill-rule="nonzero">
            <g>
                <g>
                    <path d="M12 0c6.627 0 12 5.373 12 12s-5.373 12-12 12S0 18.627 0 12 5.373 0 12 0zm0 5c-.552 0-1 .448-1 1v5H6c-.552 0-1 .448-1 1s.448 1 1 1h5v5c0 .552.448 1 1 1s1-.448 1-1v-5h5c.552 0 1-.448 1-1s-.448-1-1-1h-5V6c0-.552-.448-1-1-1z" transform="translate(-492 -4265) translate(0 3067) translate(492 1198)"/>
                </g>
            </g>
        </g>
    </g>
</svg>
