<svg xmlns="http://www.w3.org/2000/svg" width="10" height="10" viewBox="0 0 10 10">
    <g fill="none" fill-rule="evenodd">
        <g fill="#E1574C">
            <g>
                <g>
                    <path d="M5 3.651L8.372.28c.372-.372.976-.372 1.349 0 .372.373.372.977 0 1.35L6.349 5 9.72 8.372c.372.372.372.976 0 1.349-.373.372-.977.372-1.35 0L5 6.349 1.628 9.72c-.372.372-.976.372-1.349 0-.372-.373-.372-.977 0-1.35L3.651 5 .28 1.628C-.093 1.256-.093.652.28.28c.373-.372.977-.372 1.35 0L5 3.651z" transform="translate(-1412 -3875) translate(0 3067) translate(1412 808)"/>
                </g>
            </g>
        </g>
    </g>
</svg>
