<svg xmlns="http://www.w3.org/2000/svg" width="13" height="13" viewBox="0 0 13 13">
    <g fill="none" fill-rule="evenodd">
        <g fill="#F1C66D" fill-rule="nonzero">
            <g>
                <path d="M0 11.401V6.22C0 5.546.546 5 1.219 5H6.4c.324 0 .634.128.862.357l5.38 5.38c.476.476.476 1.247 0 1.723L7.46 17.643c-.476.476-1.247.476-1.723 0l-5.38-5.38C.128 12.035 0 11.725 0 11.401zm2.844-4.776c-.673 0-1.219.546-1.219 1.219s.546 1.218 1.219 1.218 1.218-.545 1.218-1.218c0-.673-.545-1.219-1.218-1.219z" transform="translate(-310 -301) translate(310 296)"/>
            </g>
        </g>
    </g>
</svg>
