<svg xmlns="http://www.w3.org/2000/svg" width="20" height="20" viewBox="0 0 20 20">
    <path fill="#716C70" fill-rule="nonzero" d="M7.695 5.122c.382.397.905.94.905 1.969a.714.714 0 0 1-.7.727.714.714 0 0 1-.7-.727c0-.409-.152-.584-.495-.94-.382-.397-.905-.94-.905-1.97 0-1.028.523-1.571.905-1.968a.682.682 0 0 1 .99 0 .747.747 0 0 1 0 1.028c-.343.357-.495.532-.495.94 0 .41.152.584.495.941zm3.267 0c.382.397.905.94.905 1.969a.714.714 0 0 1-.7.727.714.714 0 0 1-.7-.727c0-.409-.152-.584-.495-.94-.382-.397-.905-.94-.905-1.97 0-1.028.523-1.571.905-1.968a.682.682 0 0 1 .99 0 .747.747 0 0 1 0 1.028c-.344.357-.495.532-.495.94 0 .41.151.584.495.941zm2.81 9.484a5.603 5.603 0 0 1-1.328 1.94h1.523c.386 0 .7.325.7.727a.714.714 0 0 1-.7.727H3.7a.714.714 0 0 1-.7-.727c0-.402.313-.728.7-.728h1.522a5.662 5.662 0 0 1-1.755-4.12V10c0-.402.313-.727.7-.727h10.266c1.416 0 2.567 1.196 2.567 2.666s-1.15 2.666-2.565 2.667h-.663zm.428-2.182c0 .247-.016.49-.046.728h.279c.644 0 1.167-.544 1.167-1.213 0-.668-.523-1.212-1.167-1.212H14.2v1.697z"/>
</svg>
