<svg xmlns="http://www.w3.org/2000/svg" width="20" height="20" viewBox="0 0 20 20">
    <path fill="#716C70" fill-rule="nonzero" d="M10.053 3v14H2.89a.89.89 0 0 1-.89-.89V3.89A.89.89 0 0 1 2.89 3h7.163zm.894 0h7.163a.89.89 0 0 1 .89.89v12.22a.89.89 0 0 1-.89.89h-7.163V3zm5.844 8.75c.157 0 .3-.094.373-.245a.48.48 0 0 0-.031-.468l-1.66-2.51a.601.601 0 0 0-.5-.277.601.601 0 0 0-.499.277l-1.66 2.51a.48.48 0 0 0-.03.468c.071.15.215.245.372.245h3.635zm-8.947-3.5H4.209c-.157 0-.3.094-.373.245a.48.48 0 0 0 .031.468l1.66 2.51a.601.601 0 0 0 .5.277.601.601 0 0 0 .499-.277l1.66-2.51a.48.48 0 0 0 .03-.468.417.417 0 0 0-.372-.245z"/>
</svg>
