<svg xmlns="http://www.w3.org/2000/svg" width="20" height="20" viewBox="0 0 20 20">
    <g fill="#716C70" fill-rule="evenodd">
        <path d="M7 4c.554 0 1.025-.195 1.415-.585C8.805 3.025 9 2.554 9 2S8.805.975 8.415.585A1.928 1.928 0 0 0 7 0c-.554 0-1.025.195-1.415.585C5.195.975 5 1.446 5 2s.195 1.025.585 1.415C5.975 3.805 6.446 4 7 4zM10.563 5.612C10.27 5.204 9.917 5 9.5 5h-5c-.417 0-.77.204-1.063.612C3.146 6.021 3 6.517 3 7.1v4.55c0 .292.073.54.219.744.146.204.323.306.531.306.208 0 .385-.102.531-.306.146-.204.219-.452.219-.744V7.8H5v9.975c0 .335.086.623.258.864.172.24.377.36.617.36s.445-.12.617-.36.258-.529.258-.864V12.7h.5v5.075c0 .335.086.624.258.864.172.24.377.361.617.361s.445-.12.617-.36c.172-.242.258-.53.258-.865V7.8h.5v3.85c0 .292.073.54.219.744.146.204.323.306.53.306.21 0 .387-.102.532-.306.146-.205.219-.452.219-.744V7.1c0-.583-.146-1.08-.437-1.488zM14.491 10c.413 0 .765-.146 1.056-.439a1.45 1.45 0 0 0 .436-1.061 1.45 1.45 0 0 0-.436-1.061A1.434 1.434 0 0 0 14.49 7c-.412 0-.764.146-1.055.439A1.45 1.45 0 0 0 13 8.5c0 .415.145.77.436 1.061.29.293.643.439 1.055.439zM16.063 11h-3.125c-.26 0-.482.117-.665.35a1.34 1.34 0 0 0-.273.85v2.6c0 .167.046.308.137.425a.409.409 0 0 0 .332.175c.13 0 .24-.058.332-.175a.67.67 0 0 0 .137-.425v-2.2h.312v5.7c0 .192.054.356.161.494a.477.477 0 0 0 .386.206c.15 0 .278-.069.386-.206a.778.778 0 0 0 .16-.494v-2.9h.313v2.9c0 .192.054.356.161.494a.477.477 0 0 0 .386.206c.15 0 .279-.069.386-.206a.778.778 0 0 0 .161-.494v-5.7h.313v2.2c0 .167.045.308.136.425a.409.409 0 0 0 .332.175c.13 0 .241-.058.332-.175A.67.67 0 0 0 17 14.8v-2.6c0-.333-.091-.617-.273-.85-.183-.233-.404-.35-.664-.35z"/>
    </g>
</svg>
