<svg xmlns="http://www.w3.org/2000/svg" width="20" height="20" viewBox="0 0 20 20">
    <path fill="#716C70" fill-rule="nonzero" d="M3.77 6.311l.43-1.06A2 2 0 0 1 6.054 4h7.705a2 2 0 0 1 1.832 1.197l.507 1.158.953-.318a.72.72 0 0 1 .949.684 1 1 0 0 1-1 1h-.303l1.05 2.396A3 3 0 0 1 18 11.322v3.371a1 1 0 0 1-1 1h-1a1 1 0 0 1-1-1v-1H5v1a1 1 0 0 1-1 1H3a1 1 0 0 1-1-1v-3.417a3 3 0 0 1 .219-1.124L3.2 7.721H3a1 1 0 0 1-1-1 .72.72 0 0 1 .949-.684l.822.274zM4 10a1 1 0 0 0 0 2h1a1 1 0 0 0 0-2H4zm11 0a1 1 0 0 0 0 2h1a1 1 0 0 0 0-2h-1zM6.781 5a1 1 0 0 0-.97.757L5 9h10.027l-.834-3.249A1 1 0 0 0 13.225 5H6.78z"/>
</svg>
