<svg xmlns="http://www.w3.org/2000/svg" width="20" height="20" viewBox="0 0 20 20">
    <path fill="#716C70" fill-rule="nonzero" d="M17.588 15.604a1.408 1.408 0 0 1 0 1.99 1.422 1.422 0 0 1-1.99 0l-5.294-5.916-.755.755L3.823 6.71c-.533-.534-.851-1.258-.919-2.094-.059-.733.073-1.535.382-2.32L3.403 2h.573l7.335 7.33 6.277 6.274zM6.896 11.108l1.99 1.989-4.484 4.482a1.418 1.418 0 0 1-1.99 0 1.408 1.408 0 0 1 0-1.99l4.484-4.481zm10.429-6.444l.663.663-3.318 3.316a2.342 2.342 0 0 1-1.517.682 1.351 1.351 0 0 0-.424.096l-2.155-2.154a1.35 1.35 0 0 0 .096-.423 2.34 2.34 0 0 1 .683-1.517l3.317-3.316.664.663-2.544 2.543.664.663 2.544-2.542.663.663-2.544 2.542.664.663 2.544-2.542z"/>
</svg>
