<svg xmlns="http://www.w3.org/2000/svg" width="20" height="20" viewBox="0 0 20 20">
    <g fill="#716C70" fill-rule="evenodd">
        <path d="M4.1 5c.415 0 .769-.146 1.061-.439.293-.292.439-.646.439-1.061 0-.415-.146-.769-.439-1.061A1.446 1.446 0 0 0 4.1 2c-.415 0-.77.146-1.061.439A1.446 1.446 0 0 0 2.6 3.5c0 .415.146.77.439 1.061C3.33 4.854 3.685 5 4.1 5zM6.672 6.525C6.453 6.175 6.188 6 5.875 6h-3.75c-.313 0-.578.175-.797.525C1.11 6.875 1 7.3 1 7.8v3.9c0 .25.055.463.164.637.11.175.242.263.398.263.157 0 .29-.088.399-.263a1.18 1.18 0 0 0 .164-.637V8.4H2.5v8.55c0 .287.065.534.193.74.13.207.284.31.463.31.18 0 .334-.103.463-.31a1.37 1.37 0 0 0 .194-.74V12.6h.374v4.35c0 .287.065.534.194.74.129.207.283.31.463.31.18 0 .334-.103.463-.31a1.37 1.37 0 0 0 .193-.74V8.4h.375v3.3c0 .25.055.462.164.637.11.175.242.263.398.263.157 0 .29-.088.399-.263A1.18 1.18 0 0 0 7 11.7V7.8c0-.5-.11-.925-.328-1.275zM15.1 5c.415 0 .769-.146 1.061-.439.293-.292.439-.646.439-1.061 0-.415-.146-.769-.439-1.061A1.446 1.446 0 0 0 15.1 2c-.415 0-.77.146-1.061.439A1.446 1.446 0 0 0 13.6 3.5c0 .415.146.77.439 1.061.292.293.646.439 1.061.439zM17.672 6.525c-.219-.35-.484-.525-.797-.525h-3.75c-.313 0-.578.175-.797.525C12.11 6.875 12 7.3 12 7.8v3.9c0 .25.055.463.164.637.11.175.242.263.398.263.157 0 .29-.088.399-.263a1.18 1.18 0 0 0 .164-.637V8.4h.375v8.55c0 .287.065.534.193.74.13.207.284.31.463.31.18 0 .334-.103.463-.31a1.37 1.37 0 0 0 .194-.74V12.6h.374v4.35c0 .287.065.534.194.74.129.207.283.31.463.31.18 0 .334-.103.463-.31a1.37 1.37 0 0 0 .193-.74V8.4h.375v3.3c0 .25.055.462.164.637.11.175.242.263.398.263.157 0 .29-.088.399-.263A1.18 1.18 0 0 0 18 11.7V7.8c0-.5-.11-.925-.328-1.275z"/>
        <path fill-rule="nonzero" d="M9 2h1v16H9z"/>
    </g>
</svg>
